%TF.GenerationSoftware,KiCad,Pcbnew,8.0.5*%
%TF.CreationDate,2024-09-29T23:23:00-04:00*%
%TF.ProjectId,BREAD_Slice,42524541-445f-4536-9c69-63652e6b6963,rev?*%
%TF.SameCoordinates,PX74eba40PY8552dc0*%
%TF.FileFunction,Paste,Bot*%
%TF.FilePolarity,Positive*%
%FSLAX46Y46*%
G04 Gerber Fmt 4.6, Leading zero omitted, Abs format (unit mm)*
G04 Created by KiCad (PCBNEW 8.0.5) date 2024-09-29 23:23:00*
%MOMM*%
%LPD*%
G01*
G04 APERTURE LIST*
G04 Aperture macros list*
%AMRoundRect*
0 Rectangle with rounded corners*
0 $1 Rounding radius*
0 $2 $3 $4 $5 $6 $7 $8 $9 X,Y pos of 4 corners*
0 Add a 4 corners polygon primitive as box body*
4,1,4,$2,$3,$4,$5,$6,$7,$8,$9,$2,$3,0*
0 Add four circle primitives for the rounded corners*
1,1,$1+$1,$2,$3*
1,1,$1+$1,$4,$5*
1,1,$1+$1,$6,$7*
1,1,$1+$1,$8,$9*
0 Add four rect primitives between the rounded corners*
20,1,$1+$1,$2,$3,$4,$5,0*
20,1,$1+$1,$4,$5,$6,$7,0*
20,1,$1+$1,$6,$7,$8,$9,0*
20,1,$1+$1,$8,$9,$2,$3,0*%
G04 Aperture macros list end*
%ADD10C,0.000000*%
%ADD11RoundRect,0.250000X-0.250000X-0.475000X0.250000X-0.475000X0.250000X0.475000X-0.250000X0.475000X0*%
%ADD12RoundRect,0.250000X-0.450000X0.262500X-0.450000X-0.262500X0.450000X-0.262500X0.450000X0.262500X0*%
%ADD13RoundRect,0.250000X-0.475000X0.250000X-0.475000X-0.250000X0.475000X-0.250000X0.475000X0.250000X0*%
%ADD14RoundRect,0.150000X-0.150000X0.587500X-0.150000X-0.587500X0.150000X-0.587500X0.150000X0.587500X0*%
%ADD15RoundRect,0.250000X0.325000X0.650000X-0.325000X0.650000X-0.325000X-0.650000X0.325000X-0.650000X0*%
%ADD16RoundRect,0.150000X0.150000X0.625000X-0.150000X0.625000X-0.150000X-0.625000X0.150000X-0.625000X0*%
%ADD17RoundRect,0.250000X0.350000X0.650000X-0.350000X0.650000X-0.350000X-0.650000X0.350000X-0.650000X0*%
%ADD18RoundRect,0.250000X0.450000X-0.262500X0.450000X0.262500X-0.450000X0.262500X-0.450000X-0.262500X0*%
%ADD19RoundRect,0.218750X-0.381250X0.218750X-0.381250X-0.218750X0.381250X-0.218750X0.381250X0.218750X0*%
%ADD20RoundRect,0.250000X-0.625000X0.312500X-0.625000X-0.312500X0.625000X-0.312500X0.625000X0.312500X0*%
%ADD21RoundRect,0.250000X-0.262500X-0.450000X0.262500X-0.450000X0.262500X0.450000X-0.262500X0.450000X0*%
%ADD22RoundRect,0.150000X0.587500X0.150000X-0.587500X0.150000X-0.587500X-0.150000X0.587500X-0.150000X0*%
%ADD23RoundRect,0.250000X0.262500X0.450000X-0.262500X0.450000X-0.262500X-0.450000X0.262500X-0.450000X0*%
%ADD24RoundRect,0.250000X-0.375000X-1.075000X0.375000X-1.075000X0.375000X1.075000X-0.375000X1.075000X0*%
%ADD25RoundRect,0.150000X-0.512500X-0.150000X0.512500X-0.150000X0.512500X0.150000X-0.512500X0.150000X0*%
%ADD26RoundRect,0.250000X0.475000X-0.250000X0.475000X0.250000X-0.475000X0.250000X-0.475000X-0.250000X0*%
%ADD27RoundRect,0.150000X-0.825000X-0.150000X0.825000X-0.150000X0.825000X0.150000X-0.825000X0.150000X0*%
%ADD28RoundRect,0.250000X-0.325000X-0.650000X0.325000X-0.650000X0.325000X0.650000X-0.325000X0.650000X0*%
%ADD29R,2.184400X1.651000*%
G04 APERTURE END LIST*
D10*
%TO.C,U4*%
G36*
X25431299Y76728700D02*
G01*
X24681300Y76728700D01*
X24681300Y76958700D01*
X25431299Y76958700D01*
X25431299Y76728700D01*
G37*
G36*
X25431299Y76228701D02*
G01*
X24681300Y76228701D01*
X24681300Y76458701D01*
X25431299Y76458701D01*
X25431299Y76228701D01*
G37*
G36*
X25431299Y75728699D02*
G01*
X24681300Y75728699D01*
X24681300Y75958699D01*
X25431299Y75958699D01*
X25431299Y75728699D01*
G37*
G36*
X25431299Y75228700D02*
G01*
X24681300Y75228700D01*
X24681300Y75458700D01*
X25431299Y75458700D01*
X25431299Y75228700D01*
G37*
G36*
X26171112Y77468701D02*
G01*
X25941110Y77468701D01*
X25941110Y78218700D01*
X26171112Y78218700D01*
X26171112Y77468701D01*
G37*
G36*
X26171112Y73968700D02*
G01*
X25941110Y73968700D01*
X25941110Y74718699D01*
X26171112Y74718699D01*
X26171112Y73968700D01*
G37*
G36*
X26671238Y77468701D02*
G01*
X26441236Y77468701D01*
X26441236Y78218700D01*
X26671238Y78218700D01*
X26671238Y77468701D01*
G37*
G36*
X26671238Y73968700D02*
G01*
X26441236Y73968700D01*
X26441236Y74718699D01*
X26671238Y74718699D01*
X26671238Y73968700D01*
G37*
G36*
X27171364Y77468701D02*
G01*
X26941362Y77468701D01*
X26941362Y78218700D01*
X27171364Y78218700D01*
X27171364Y77468701D01*
G37*
G36*
X27171364Y73968700D02*
G01*
X26941362Y73968700D01*
X26941362Y74718699D01*
X27171364Y74718699D01*
X27171364Y73968700D01*
G37*
G36*
X27671490Y77468701D02*
G01*
X27441488Y77468701D01*
X27441488Y78218700D01*
X27671490Y78218700D01*
X27671490Y77468701D01*
G37*
G36*
X27671490Y73968700D02*
G01*
X27441488Y73968700D01*
X27441488Y74718699D01*
X27671490Y74718699D01*
X27671490Y73968700D01*
G37*
G36*
X28931300Y76728700D02*
G01*
X28181301Y76728700D01*
X28181301Y76958700D01*
X28931300Y76958700D01*
X28931300Y76728700D01*
G37*
G36*
X28931300Y76228701D02*
G01*
X28181301Y76228701D01*
X28181301Y76458701D01*
X28931300Y76458701D01*
X28931300Y76228701D01*
G37*
G36*
X28931300Y75728699D02*
G01*
X28181301Y75728699D01*
X28181301Y75958699D01*
X28931300Y75958699D01*
X28931300Y75728699D01*
G37*
G36*
X28931300Y75228700D02*
G01*
X28181301Y75228700D01*
X28181301Y75458700D01*
X28931300Y75458700D01*
X28931300Y75228700D01*
G37*
G36*
X26312600Y75458579D02*
G01*
X26312600Y75098630D01*
X25811230Y75098630D01*
X25811230Y75600000D01*
X26171179Y75600000D01*
X26312600Y75458579D01*
G37*
G36*
X26312600Y76728821D02*
G01*
X26171179Y76587400D01*
X25811230Y76587400D01*
X25811230Y77088770D01*
X26312600Y77088770D01*
X26312600Y76728821D01*
G37*
G36*
X27801370Y76587400D02*
G01*
X27441421Y76587400D01*
X27300000Y76728821D01*
X27300000Y77088770D01*
X27801370Y77088770D01*
X27801370Y76587400D01*
G37*
G36*
X27801370Y75098630D02*
G01*
X27300000Y75098630D01*
X27300000Y75458579D01*
X27441421Y75600000D01*
X27801370Y75600000D01*
X27801370Y75098630D01*
G37*
G36*
X26312600Y76245979D02*
G01*
X26312600Y75941421D01*
X26171179Y75800000D01*
X25811230Y75800000D01*
X25811230Y76387400D01*
X26171179Y76387400D01*
X26312600Y76245979D01*
G37*
G36*
X27100000Y75458579D02*
G01*
X27100000Y75098630D01*
X26512600Y75098630D01*
X26512600Y75458579D01*
X26654021Y75600000D01*
X26958579Y75600000D01*
X27100000Y75458579D01*
G37*
G36*
X27100000Y76728821D02*
G01*
X26958579Y76587400D01*
X26654021Y76587400D01*
X26512600Y76728821D01*
X26512600Y77088770D01*
X27100000Y77088770D01*
X27100000Y76728821D01*
G37*
G36*
X27801370Y75800000D02*
G01*
X27441421Y75800000D01*
X27300000Y75941421D01*
X27300000Y76245979D01*
X27441421Y76387400D01*
X27801370Y76387400D01*
X27801370Y75800000D01*
G37*
G36*
X27100000Y76245979D02*
G01*
X27100000Y75941421D01*
X26958579Y75800000D01*
X26654021Y75800000D01*
X26512600Y75941421D01*
X26512600Y76245979D01*
X26654021Y76387400D01*
X26958579Y76387400D01*
X27100000Y76245979D01*
G37*
%TD*%
D11*
%TO.C,C13*%
X21250000Y74300000D03*
X23150000Y74300000D03*
%TD*%
D12*
%TO.C,R3*%
X60235000Y34615000D03*
X60235000Y32790000D03*
%TD*%
D13*
%TO.C,C9*%
X32200000Y91200000D03*
X32200000Y89300000D03*
%TD*%
D12*
%TO.C,R2*%
X49112500Y85100000D03*
X49112500Y83275000D03*
%TD*%
D14*
%TO.C,D2*%
X26950000Y83837500D03*
X28850000Y83837500D03*
%TD*%
D11*
%TO.C,C11*%
X35375000Y81900000D03*
X37275000Y81900000D03*
%TD*%
D15*
%TO.C,C1*%
X7425000Y20345000D03*
X4475000Y20345000D03*
%TD*%
D16*
%TO.C,J1*%
X29098000Y5400000D03*
X28098000Y5400000D03*
X27098000Y5400000D03*
X26098000Y5400000D03*
D17*
X30398000Y1525000D03*
X24798000Y1525000D03*
%TD*%
D18*
%TO.C,R1*%
X43481250Y74987500D03*
X43481250Y76812500D03*
%TD*%
D19*
%TO.C,L2*%
X20925000Y90462500D03*
X20925000Y88337500D03*
%TD*%
D20*
%TO.C,R7*%
X23300000Y86462500D03*
X23300000Y83537500D03*
%TD*%
D21*
%TO.C,R5*%
X37500000Y79500000D03*
X39325000Y79500000D03*
%TD*%
%TO.C,Rset1*%
X41100000Y79500000D03*
X42925000Y79500000D03*
%TD*%
D22*
%TO.C,Q2*%
X46950000Y85137500D03*
X46950000Y83237500D03*
X45075000Y84187500D03*
%TD*%
D15*
%TO.C,C2*%
X10025000Y13545000D03*
X7075000Y13545000D03*
%TD*%
D23*
%TO.C,R9*%
X23125000Y72100000D03*
X21300000Y72100000D03*
%TD*%
D24*
%TO.C,L1*%
X9850000Y17045000D03*
X12650000Y17045000D03*
%TD*%
D12*
%TO.C,R12*%
X31800000Y54412500D03*
X31800000Y52587500D03*
%TD*%
D25*
%TO.C,U1*%
X5012500Y16095000D03*
X5012500Y17045000D03*
X5012500Y17995000D03*
X7287500Y17995000D03*
X7287500Y17045000D03*
X7287500Y16095000D03*
%TD*%
D26*
%TO.C,C7*%
X26100000Y85750000D03*
X26100000Y87650000D03*
%TD*%
%TO.C,C8*%
X21000000Y84600000D03*
X21000000Y86500000D03*
%TD*%
D18*
%TO.C,R10*%
X25100000Y70887500D03*
X25100000Y72712500D03*
%TD*%
D23*
%TO.C,R4*%
X60347500Y30490000D03*
X58522500Y30490000D03*
%TD*%
D11*
%TO.C,C12*%
X19350000Y82600000D03*
X21250000Y82600000D03*
%TD*%
%TO.C,C10*%
X19300000Y80100000D03*
X21200000Y80100000D03*
%TD*%
D27*
%TO.C,Q1*%
X24825000Y89400000D03*
X24825000Y90670000D03*
X24825000Y91940000D03*
X24825000Y93210000D03*
X29775000Y93210000D03*
X29775000Y91940000D03*
X29775000Y90670000D03*
X29775000Y89400000D03*
%TD*%
D18*
%TO.C,R11*%
X36100000Y52687500D03*
X36100000Y54512500D03*
%TD*%
D13*
%TO.C,C14*%
X28300000Y72750000D03*
X28300000Y70850000D03*
%TD*%
%TO.C,C5*%
X30700000Y83500000D03*
X30700000Y81600000D03*
%TD*%
D28*
%TO.C,C3*%
X9775000Y20345000D03*
X12725000Y20345000D03*
%TD*%
D12*
%TO.C,R6*%
X46300000Y81612500D03*
X46300000Y79787500D03*
%TD*%
D28*
%TO.C,C4*%
X9775000Y23345000D03*
X12725000Y23345000D03*
%TD*%
D23*
%TO.C,R8*%
X37225000Y84400000D03*
X35400000Y84400000D03*
%TD*%
D13*
%TO.C,C6*%
X45781250Y76850000D03*
X45781250Y74950000D03*
%TD*%
D29*
%TO.C,D3*%
X37398200Y76300000D03*
X40801800Y76300000D03*
%TD*%
M02*
