%TF.GenerationSoftware,KiCad,Pcbnew,8.0.5*%
%TF.CreationDate,2024-09-29T23:23:00-04:00*%
%TF.ProjectId,BREAD_Slice,42524541-445f-4536-9c69-63652e6b6963,rev?*%
%TF.SameCoordinates,PX74eba40PY8552dc0*%
%TF.FileFunction,Legend,Bot*%
%TF.FilePolarity,Positive*%
%FSLAX46Y46*%
G04 Gerber Fmt 4.6, Leading zero omitted, Abs format (unit mm)*
G04 Created by KiCad (PCBNEW 8.0.5) date 2024-09-29 23:23:00*
%MOMM*%
%LPD*%
G01*
G04 APERTURE LIST*
%ADD10C,0.120000*%
%ADD11C,0.150000*%
%ADD12C,0.508000*%
%ADD13C,0.152400*%
%ADD14C,0.000000*%
G04 APERTURE END LIST*
D10*
X2450000Y26913000D02*
X3770000Y26913000D01*
X4250000Y26913000D02*
X5570000Y26913000D01*
X6050000Y26913000D02*
X7370000Y26913000D01*
X7850000Y26913000D02*
X9170000Y26913000D01*
X9650000Y26913000D02*
X10970000Y26913000D01*
X11450000Y26913000D02*
X12770000Y26913000D01*
X13250000Y26913000D02*
X14570000Y26913000D01*
X15050000Y26913000D02*
X16150000Y26913000D01*
X16150000Y26913000D02*
X16150000Y25593000D01*
X16150000Y25113000D02*
X16150000Y23793000D01*
X16150000Y23313000D02*
X16150000Y21993000D01*
X16150000Y21513000D02*
X16150000Y20193000D01*
X16150000Y19713000D02*
X16150000Y18393000D01*
X16150000Y17913000D02*
X16150000Y16593000D01*
X16150000Y16113000D02*
X16150000Y14793000D01*
X16150000Y14313000D02*
X16150000Y12993000D01*
X16150000Y12513000D02*
X16150000Y11193000D01*
X16150000Y10713000D02*
X16150000Y10445000D01*
X16150000Y10445000D02*
X14830000Y10445000D01*
X14350000Y10445000D02*
X13030000Y10445000D01*
X12550000Y10445000D02*
X11230000Y10445000D01*
X10750000Y10445000D02*
X9430000Y10445000D01*
X8950000Y10445000D02*
X7630000Y10445000D01*
X7150000Y10445000D02*
X5830000Y10445000D01*
X5350000Y10445000D02*
X4030000Y10445000D01*
X3550000Y10445000D02*
X2450000Y10445000D01*
X2450000Y10445000D02*
X2450000Y11765000D01*
X2450000Y12245000D02*
X2450000Y13565000D01*
X2450000Y14045000D02*
X2450000Y15365000D01*
X2450000Y15845000D02*
X2450000Y17165000D01*
X2450000Y17645000D02*
X2450000Y18965000D01*
X2450000Y19445000D02*
X2450000Y20765000D01*
X2450000Y21245000D02*
X2450000Y22565000D01*
X2450000Y23045000D02*
X2450000Y24365000D01*
X2450000Y24845000D02*
X2450000Y26165000D01*
X2450000Y26645000D02*
X2450000Y26913000D01*
D11*
X13773809Y25375181D02*
X14345237Y25375181D01*
X14059523Y25375181D02*
X14059523Y26375181D01*
X14059523Y26375181D02*
X14154761Y26232324D01*
X14154761Y26232324D02*
X14249999Y26137086D01*
X14249999Y26137086D02*
X14345237Y26089467D01*
X13392856Y26279943D02*
X13345237Y26327562D01*
X13345237Y26327562D02*
X13249999Y26375181D01*
X13249999Y26375181D02*
X13011904Y26375181D01*
X13011904Y26375181D02*
X12916666Y26327562D01*
X12916666Y26327562D02*
X12869047Y26279943D01*
X12869047Y26279943D02*
X12821428Y26184705D01*
X12821428Y26184705D02*
X12821428Y26089467D01*
X12821428Y26089467D02*
X12869047Y25946610D01*
X12869047Y25946610D02*
X13440475Y25375181D01*
X13440475Y25375181D02*
X12821428Y25375181D01*
X12535713Y26375181D02*
X12202380Y25375181D01*
X12202380Y25375181D02*
X11869047Y26375181D01*
X11535713Y25756134D02*
X10773809Y25756134D01*
X10297618Y26041848D02*
X9535714Y25756134D01*
X9535714Y25756134D02*
X10297618Y25470420D01*
X8583333Y26375181D02*
X9059523Y26375181D01*
X9059523Y26375181D02*
X9107142Y25898991D01*
X9107142Y25898991D02*
X9059523Y25946610D01*
X9059523Y25946610D02*
X8964285Y25994229D01*
X8964285Y25994229D02*
X8726190Y25994229D01*
X8726190Y25994229D02*
X8630952Y25946610D01*
X8630952Y25946610D02*
X8583333Y25898991D01*
X8583333Y25898991D02*
X8535714Y25803753D01*
X8535714Y25803753D02*
X8535714Y25565658D01*
X8535714Y25565658D02*
X8583333Y25470420D01*
X8583333Y25470420D02*
X8630952Y25422800D01*
X8630952Y25422800D02*
X8726190Y25375181D01*
X8726190Y25375181D02*
X8964285Y25375181D01*
X8964285Y25375181D02*
X9059523Y25422800D01*
X9059523Y25422800D02*
X9107142Y25470420D01*
X8249999Y26375181D02*
X7916666Y25375181D01*
X7916666Y25375181D02*
X7583333Y26375181D01*
X5916666Y25375181D02*
X6249999Y25851372D01*
X6488094Y25375181D02*
X6488094Y26375181D01*
X6488094Y26375181D02*
X6107142Y26375181D01*
X6107142Y26375181D02*
X6011904Y26327562D01*
X6011904Y26327562D02*
X5964285Y26279943D01*
X5964285Y26279943D02*
X5916666Y26184705D01*
X5916666Y26184705D02*
X5916666Y26041848D01*
X5916666Y26041848D02*
X5964285Y25946610D01*
X5964285Y25946610D02*
X6011904Y25898991D01*
X6011904Y25898991D02*
X6107142Y25851372D01*
X6107142Y25851372D02*
X6488094Y25851372D01*
X5107142Y25422800D02*
X5202380Y25375181D01*
X5202380Y25375181D02*
X5392856Y25375181D01*
X5392856Y25375181D02*
X5488094Y25422800D01*
X5488094Y25422800D02*
X5535713Y25518039D01*
X5535713Y25518039D02*
X5535713Y25898991D01*
X5535713Y25898991D02*
X5488094Y25994229D01*
X5488094Y25994229D02*
X5392856Y26041848D01*
X5392856Y26041848D02*
X5202380Y26041848D01*
X5202380Y26041848D02*
X5107142Y25994229D01*
X5107142Y25994229D02*
X5059523Y25898991D01*
X5059523Y25898991D02*
X5059523Y25803753D01*
X5059523Y25803753D02*
X5535713Y25708515D01*
X4202380Y26041848D02*
X4202380Y25232324D01*
X4202380Y25232324D02*
X4249999Y25137086D01*
X4249999Y25137086D02*
X4297618Y25089467D01*
X4297618Y25089467D02*
X4392856Y25041848D01*
X4392856Y25041848D02*
X4535713Y25041848D01*
X4535713Y25041848D02*
X4630951Y25089467D01*
X4202380Y25422800D02*
X4297618Y25375181D01*
X4297618Y25375181D02*
X4488094Y25375181D01*
X4488094Y25375181D02*
X4583332Y25422800D01*
X4583332Y25422800D02*
X4630951Y25470420D01*
X4630951Y25470420D02*
X4678570Y25565658D01*
X4678570Y25565658D02*
X4678570Y25851372D01*
X4678570Y25851372D02*
X4630951Y25946610D01*
X4630951Y25946610D02*
X4583332Y25994229D01*
X4583332Y25994229D02*
X4488094Y26041848D01*
X4488094Y26041848D02*
X4297618Y26041848D01*
X4297618Y26041848D02*
X4202380Y25994229D01*
X29764666Y10740125D02*
X30240856Y10740125D01*
X30240856Y10740125D02*
X30288475Y10263935D01*
X30288475Y10263935D02*
X30240856Y10311554D01*
X30240856Y10311554D02*
X30145618Y10359173D01*
X30145618Y10359173D02*
X29907523Y10359173D01*
X29907523Y10359173D02*
X29812285Y10311554D01*
X29812285Y10311554D02*
X29764666Y10263935D01*
X29764666Y10263935D02*
X29717047Y10168697D01*
X29717047Y10168697D02*
X29717047Y9930602D01*
X29717047Y9930602D02*
X29764666Y9835364D01*
X29764666Y9835364D02*
X29812285Y9787744D01*
X29812285Y9787744D02*
X29907523Y9740125D01*
X29907523Y9740125D02*
X30145618Y9740125D01*
X30145618Y9740125D02*
X30240856Y9787744D01*
X30240856Y9787744D02*
X30288475Y9835364D01*
X29431332Y10740125D02*
X29097999Y9740125D01*
X29097999Y9740125D02*
X28764666Y10740125D01*
X27669427Y9740125D02*
X27669427Y10740125D01*
X27240856Y10644887D02*
X27193237Y10692506D01*
X27193237Y10692506D02*
X27097999Y10740125D01*
X27097999Y10740125D02*
X26859904Y10740125D01*
X26859904Y10740125D02*
X26764666Y10692506D01*
X26764666Y10692506D02*
X26717047Y10644887D01*
X26717047Y10644887D02*
X26669428Y10549649D01*
X26669428Y10549649D02*
X26669428Y10454411D01*
X26669428Y10454411D02*
X26717047Y10311554D01*
X26717047Y10311554D02*
X27288475Y9740125D01*
X27288475Y9740125D02*
X26669428Y9740125D01*
X25669428Y9835364D02*
X25717047Y9787744D01*
X25717047Y9787744D02*
X25859904Y9740125D01*
X25859904Y9740125D02*
X25955142Y9740125D01*
X25955142Y9740125D02*
X26097999Y9787744D01*
X26097999Y9787744D02*
X26193237Y9882983D01*
X26193237Y9882983D02*
X26240856Y9978221D01*
X26240856Y9978221D02*
X26288475Y10168697D01*
X26288475Y10168697D02*
X26288475Y10311554D01*
X26288475Y10311554D02*
X26240856Y10502030D01*
X26240856Y10502030D02*
X26193237Y10597268D01*
X26193237Y10597268D02*
X26097999Y10692506D01*
X26097999Y10692506D02*
X25955142Y10740125D01*
X25955142Y10740125D02*
X25859904Y10740125D01*
X25859904Y10740125D02*
X25717047Y10692506D01*
X25717047Y10692506D02*
X25669428Y10644887D01*
X30550381Y8225420D02*
X30598000Y8177800D01*
X30598000Y8177800D02*
X30740857Y8130181D01*
X30740857Y8130181D02*
X30836095Y8130181D01*
X30836095Y8130181D02*
X30978952Y8177800D01*
X30978952Y8177800D02*
X31074190Y8273039D01*
X31074190Y8273039D02*
X31121809Y8368277D01*
X31121809Y8368277D02*
X31169428Y8558753D01*
X31169428Y8558753D02*
X31169428Y8701610D01*
X31169428Y8701610D02*
X31121809Y8892086D01*
X31121809Y8892086D02*
X31074190Y8987324D01*
X31074190Y8987324D02*
X30978952Y9082562D01*
X30978952Y9082562D02*
X30836095Y9130181D01*
X30836095Y9130181D02*
X30740857Y9130181D01*
X30740857Y9130181D02*
X30598000Y9082562D01*
X30598000Y9082562D02*
X30550381Y9034943D01*
X29978952Y8130181D02*
X30074190Y8177800D01*
X30074190Y8177800D02*
X30121809Y8225420D01*
X30121809Y8225420D02*
X30169428Y8320658D01*
X30169428Y8320658D02*
X30169428Y8606372D01*
X30169428Y8606372D02*
X30121809Y8701610D01*
X30121809Y8701610D02*
X30074190Y8749229D01*
X30074190Y8749229D02*
X29978952Y8796848D01*
X29978952Y8796848D02*
X29836095Y8796848D01*
X29836095Y8796848D02*
X29740857Y8749229D01*
X29740857Y8749229D02*
X29693238Y8701610D01*
X29693238Y8701610D02*
X29645619Y8606372D01*
X29645619Y8606372D02*
X29645619Y8320658D01*
X29645619Y8320658D02*
X29693238Y8225420D01*
X29693238Y8225420D02*
X29740857Y8177800D01*
X29740857Y8177800D02*
X29836095Y8130181D01*
X29836095Y8130181D02*
X29978952Y8130181D01*
X29217047Y8796848D02*
X29217047Y8130181D01*
X29217047Y8701610D02*
X29169428Y8749229D01*
X29169428Y8749229D02*
X29074190Y8796848D01*
X29074190Y8796848D02*
X28931333Y8796848D01*
X28931333Y8796848D02*
X28836095Y8749229D01*
X28836095Y8749229D02*
X28788476Y8653991D01*
X28788476Y8653991D02*
X28788476Y8130181D01*
X28312285Y8796848D02*
X28312285Y8130181D01*
X28312285Y8701610D02*
X28264666Y8749229D01*
X28264666Y8749229D02*
X28169428Y8796848D01*
X28169428Y8796848D02*
X28026571Y8796848D01*
X28026571Y8796848D02*
X27931333Y8749229D01*
X27931333Y8749229D02*
X27883714Y8653991D01*
X27883714Y8653991D02*
X27883714Y8130181D01*
X27026571Y8177800D02*
X27121809Y8130181D01*
X27121809Y8130181D02*
X27312285Y8130181D01*
X27312285Y8130181D02*
X27407523Y8177800D01*
X27407523Y8177800D02*
X27455142Y8273039D01*
X27455142Y8273039D02*
X27455142Y8653991D01*
X27455142Y8653991D02*
X27407523Y8749229D01*
X27407523Y8749229D02*
X27312285Y8796848D01*
X27312285Y8796848D02*
X27121809Y8796848D01*
X27121809Y8796848D02*
X27026571Y8749229D01*
X27026571Y8749229D02*
X26978952Y8653991D01*
X26978952Y8653991D02*
X26978952Y8558753D01*
X26978952Y8558753D02*
X27455142Y8463515D01*
X26121809Y8177800D02*
X26217047Y8130181D01*
X26217047Y8130181D02*
X26407523Y8130181D01*
X26407523Y8130181D02*
X26502761Y8177800D01*
X26502761Y8177800D02*
X26550380Y8225420D01*
X26550380Y8225420D02*
X26597999Y8320658D01*
X26597999Y8320658D02*
X26597999Y8606372D01*
X26597999Y8606372D02*
X26550380Y8701610D01*
X26550380Y8701610D02*
X26502761Y8749229D01*
X26502761Y8749229D02*
X26407523Y8796848D01*
X26407523Y8796848D02*
X26217047Y8796848D01*
X26217047Y8796848D02*
X26121809Y8749229D01*
X25836094Y8796848D02*
X25455142Y8796848D01*
X25693237Y9130181D02*
X25693237Y8273039D01*
X25693237Y8273039D02*
X25645618Y8177800D01*
X25645618Y8177800D02*
X25550380Y8130181D01*
X25550380Y8130181D02*
X25455142Y8130181D01*
X24978951Y8130181D02*
X25074189Y8177800D01*
X25074189Y8177800D02*
X25121808Y8225420D01*
X25121808Y8225420D02*
X25169427Y8320658D01*
X25169427Y8320658D02*
X25169427Y8606372D01*
X25169427Y8606372D02*
X25121808Y8701610D01*
X25121808Y8701610D02*
X25074189Y8749229D01*
X25074189Y8749229D02*
X24978951Y8796848D01*
X24978951Y8796848D02*
X24836094Y8796848D01*
X24836094Y8796848D02*
X24740856Y8749229D01*
X24740856Y8749229D02*
X24693237Y8701610D01*
X24693237Y8701610D02*
X24645618Y8606372D01*
X24645618Y8606372D02*
X24645618Y8320658D01*
X24645618Y8320658D02*
X24693237Y8225420D01*
X24693237Y8225420D02*
X24740856Y8177800D01*
X24740856Y8177800D02*
X24836094Y8130181D01*
X24836094Y8130181D02*
X24978951Y8130181D01*
X24217046Y8130181D02*
X24217046Y8796848D01*
X24217046Y8606372D02*
X24169427Y8701610D01*
X24169427Y8701610D02*
X24121808Y8749229D01*
X24121808Y8749229D02*
X24026570Y8796848D01*
X24026570Y8796848D02*
X23931332Y8796848D01*
X19692857Y71640420D02*
X19740476Y71592800D01*
X19740476Y71592800D02*
X19883333Y71545181D01*
X19883333Y71545181D02*
X19978571Y71545181D01*
X19978571Y71545181D02*
X20121428Y71592800D01*
X20121428Y71592800D02*
X20216666Y71688039D01*
X20216666Y71688039D02*
X20264285Y71783277D01*
X20264285Y71783277D02*
X20311904Y71973753D01*
X20311904Y71973753D02*
X20311904Y72116610D01*
X20311904Y72116610D02*
X20264285Y72307086D01*
X20264285Y72307086D02*
X20216666Y72402324D01*
X20216666Y72402324D02*
X20121428Y72497562D01*
X20121428Y72497562D02*
X19978571Y72545181D01*
X19978571Y72545181D02*
X19883333Y72545181D01*
X19883333Y72545181D02*
X19740476Y72497562D01*
X19740476Y72497562D02*
X19692857Y72449943D01*
X18740476Y71545181D02*
X19311904Y71545181D01*
X19026190Y71545181D02*
X19026190Y72545181D01*
X19026190Y72545181D02*
X19121428Y72402324D01*
X19121428Y72402324D02*
X19216666Y72307086D01*
X19216666Y72307086D02*
X19311904Y72259467D01*
X18407142Y72545181D02*
X17788095Y72545181D01*
X17788095Y72545181D02*
X18121428Y72164229D01*
X18121428Y72164229D02*
X17978571Y72164229D01*
X17978571Y72164229D02*
X17883333Y72116610D01*
X17883333Y72116610D02*
X17835714Y72068991D01*
X17835714Y72068991D02*
X17788095Y71973753D01*
X17788095Y71973753D02*
X17788095Y71735658D01*
X17788095Y71735658D02*
X17835714Y71640420D01*
X17835714Y71640420D02*
X17883333Y71592800D01*
X17883333Y71592800D02*
X17978571Y71545181D01*
X17978571Y71545181D02*
X18264285Y71545181D01*
X18264285Y71545181D02*
X18359523Y71592800D01*
X18359523Y71592800D02*
X18407142Y71640420D01*
X59054819Y34666667D02*
X58578628Y35000000D01*
X59054819Y35238095D02*
X58054819Y35238095D01*
X58054819Y35238095D02*
X58054819Y34857143D01*
X58054819Y34857143D02*
X58102438Y34761905D01*
X58102438Y34761905D02*
X58150057Y34714286D01*
X58150057Y34714286D02*
X58245295Y34666667D01*
X58245295Y34666667D02*
X58388152Y34666667D01*
X58388152Y34666667D02*
X58483390Y34714286D01*
X58483390Y34714286D02*
X58531009Y34761905D01*
X58531009Y34761905D02*
X58578628Y34857143D01*
X58578628Y34857143D02*
X58578628Y35238095D01*
X58054819Y34333333D02*
X58054819Y33714286D01*
X58054819Y33714286D02*
X58435771Y34047619D01*
X58435771Y34047619D02*
X58435771Y33904762D01*
X58435771Y33904762D02*
X58483390Y33809524D01*
X58483390Y33809524D02*
X58531009Y33761905D01*
X58531009Y33761905D02*
X58626247Y33714286D01*
X58626247Y33714286D02*
X58864342Y33714286D01*
X58864342Y33714286D02*
X58959580Y33761905D01*
X58959580Y33761905D02*
X59007200Y33809524D01*
X59007200Y33809524D02*
X59054819Y33904762D01*
X59054819Y33904762D02*
X59054819Y34190476D01*
X59054819Y34190476D02*
X59007200Y34285714D01*
X59007200Y34285714D02*
X58959580Y34333333D01*
X34409580Y90366667D02*
X34457200Y90414286D01*
X34457200Y90414286D02*
X34504819Y90557143D01*
X34504819Y90557143D02*
X34504819Y90652381D01*
X34504819Y90652381D02*
X34457200Y90795238D01*
X34457200Y90795238D02*
X34361961Y90890476D01*
X34361961Y90890476D02*
X34266723Y90938095D01*
X34266723Y90938095D02*
X34076247Y90985714D01*
X34076247Y90985714D02*
X33933390Y90985714D01*
X33933390Y90985714D02*
X33742914Y90938095D01*
X33742914Y90938095D02*
X33647676Y90890476D01*
X33647676Y90890476D02*
X33552438Y90795238D01*
X33552438Y90795238D02*
X33504819Y90652381D01*
X33504819Y90652381D02*
X33504819Y90557143D01*
X33504819Y90557143D02*
X33552438Y90414286D01*
X33552438Y90414286D02*
X33600057Y90366667D01*
X34504819Y89890476D02*
X34504819Y89700000D01*
X34504819Y89700000D02*
X34457200Y89604762D01*
X34457200Y89604762D02*
X34409580Y89557143D01*
X34409580Y89557143D02*
X34266723Y89461905D01*
X34266723Y89461905D02*
X34076247Y89414286D01*
X34076247Y89414286D02*
X33695295Y89414286D01*
X33695295Y89414286D02*
X33600057Y89461905D01*
X33600057Y89461905D02*
X33552438Y89509524D01*
X33552438Y89509524D02*
X33504819Y89604762D01*
X33504819Y89604762D02*
X33504819Y89795238D01*
X33504819Y89795238D02*
X33552438Y89890476D01*
X33552438Y89890476D02*
X33600057Y89938095D01*
X33600057Y89938095D02*
X33695295Y89985714D01*
X33695295Y89985714D02*
X33933390Y89985714D01*
X33933390Y89985714D02*
X34028628Y89938095D01*
X34028628Y89938095D02*
X34076247Y89890476D01*
X34076247Y89890476D02*
X34123866Y89795238D01*
X34123866Y89795238D02*
X34123866Y89604762D01*
X34123866Y89604762D02*
X34076247Y89509524D01*
X34076247Y89509524D02*
X34028628Y89461905D01*
X34028628Y89461905D02*
X33933390Y89414286D01*
X47917319Y84354167D02*
X47441128Y84687500D01*
X47917319Y84925595D02*
X46917319Y84925595D01*
X46917319Y84925595D02*
X46917319Y84544643D01*
X46917319Y84544643D02*
X46964938Y84449405D01*
X46964938Y84449405D02*
X47012557Y84401786D01*
X47012557Y84401786D02*
X47107795Y84354167D01*
X47107795Y84354167D02*
X47250652Y84354167D01*
X47250652Y84354167D02*
X47345890Y84401786D01*
X47345890Y84401786D02*
X47393509Y84449405D01*
X47393509Y84449405D02*
X47441128Y84544643D01*
X47441128Y84544643D02*
X47441128Y84925595D01*
X47012557Y83973214D02*
X46964938Y83925595D01*
X46964938Y83925595D02*
X46917319Y83830357D01*
X46917319Y83830357D02*
X46917319Y83592262D01*
X46917319Y83592262D02*
X46964938Y83497024D01*
X46964938Y83497024D02*
X47012557Y83449405D01*
X47012557Y83449405D02*
X47107795Y83401786D01*
X47107795Y83401786D02*
X47203033Y83401786D01*
X47203033Y83401786D02*
X47345890Y83449405D01*
X47345890Y83449405D02*
X47917319Y84020833D01*
X47917319Y84020833D02*
X47917319Y83401786D01*
X25954819Y83638095D02*
X24954819Y83638095D01*
X24954819Y83638095D02*
X24954819Y83400000D01*
X24954819Y83400000D02*
X25002438Y83257143D01*
X25002438Y83257143D02*
X25097676Y83161905D01*
X25097676Y83161905D02*
X25192914Y83114286D01*
X25192914Y83114286D02*
X25383390Y83066667D01*
X25383390Y83066667D02*
X25526247Y83066667D01*
X25526247Y83066667D02*
X25716723Y83114286D01*
X25716723Y83114286D02*
X25811961Y83161905D01*
X25811961Y83161905D02*
X25907200Y83257143D01*
X25907200Y83257143D02*
X25954819Y83400000D01*
X25954819Y83400000D02*
X25954819Y83638095D01*
X25050057Y82685714D02*
X25002438Y82638095D01*
X25002438Y82638095D02*
X24954819Y82542857D01*
X24954819Y82542857D02*
X24954819Y82304762D01*
X24954819Y82304762D02*
X25002438Y82209524D01*
X25002438Y82209524D02*
X25050057Y82161905D01*
X25050057Y82161905D02*
X25145295Y82114286D01*
X25145295Y82114286D02*
X25240533Y82114286D01*
X25240533Y82114286D02*
X25383390Y82161905D01*
X25383390Y82161905D02*
X25954819Y82733333D01*
X25954819Y82733333D02*
X25954819Y82114286D01*
X33892857Y81540420D02*
X33940476Y81492800D01*
X33940476Y81492800D02*
X34083333Y81445181D01*
X34083333Y81445181D02*
X34178571Y81445181D01*
X34178571Y81445181D02*
X34321428Y81492800D01*
X34321428Y81492800D02*
X34416666Y81588039D01*
X34416666Y81588039D02*
X34464285Y81683277D01*
X34464285Y81683277D02*
X34511904Y81873753D01*
X34511904Y81873753D02*
X34511904Y82016610D01*
X34511904Y82016610D02*
X34464285Y82207086D01*
X34464285Y82207086D02*
X34416666Y82302324D01*
X34416666Y82302324D02*
X34321428Y82397562D01*
X34321428Y82397562D02*
X34178571Y82445181D01*
X34178571Y82445181D02*
X34083333Y82445181D01*
X34083333Y82445181D02*
X33940476Y82397562D01*
X33940476Y82397562D02*
X33892857Y82349943D01*
X32940476Y81445181D02*
X33511904Y81445181D01*
X33226190Y81445181D02*
X33226190Y82445181D01*
X33226190Y82445181D02*
X33321428Y82302324D01*
X33321428Y82302324D02*
X33416666Y82207086D01*
X33416666Y82207086D02*
X33511904Y82159467D01*
X31988095Y81445181D02*
X32559523Y81445181D01*
X32273809Y81445181D02*
X32273809Y82445181D01*
X32273809Y82445181D02*
X32369047Y82302324D01*
X32369047Y82302324D02*
X32464285Y82207086D01*
X32464285Y82207086D02*
X32559523Y82159467D01*
X6116666Y21835420D02*
X6164285Y21787800D01*
X6164285Y21787800D02*
X6307142Y21740181D01*
X6307142Y21740181D02*
X6402380Y21740181D01*
X6402380Y21740181D02*
X6545237Y21787800D01*
X6545237Y21787800D02*
X6640475Y21883039D01*
X6640475Y21883039D02*
X6688094Y21978277D01*
X6688094Y21978277D02*
X6735713Y22168753D01*
X6735713Y22168753D02*
X6735713Y22311610D01*
X6735713Y22311610D02*
X6688094Y22502086D01*
X6688094Y22502086D02*
X6640475Y22597324D01*
X6640475Y22597324D02*
X6545237Y22692562D01*
X6545237Y22692562D02*
X6402380Y22740181D01*
X6402380Y22740181D02*
X6307142Y22740181D01*
X6307142Y22740181D02*
X6164285Y22692562D01*
X6164285Y22692562D02*
X6116666Y22644943D01*
X5164285Y21740181D02*
X5735713Y21740181D01*
X5449999Y21740181D02*
X5449999Y22740181D01*
X5449999Y22740181D02*
X5545237Y22597324D01*
X5545237Y22597324D02*
X5640475Y22502086D01*
X5640475Y22502086D02*
X5735713Y22454467D01*
X27921333Y2245181D02*
X27921333Y1530896D01*
X27921333Y1530896D02*
X27968952Y1388039D01*
X27968952Y1388039D02*
X28064190Y1292800D01*
X28064190Y1292800D02*
X28207047Y1245181D01*
X28207047Y1245181D02*
X28302285Y1245181D01*
X26921333Y1245181D02*
X27492761Y1245181D01*
X27207047Y1245181D02*
X27207047Y2245181D01*
X27207047Y2245181D02*
X27302285Y2102324D01*
X27302285Y2102324D02*
X27397523Y2007086D01*
X27397523Y2007086D02*
X27492761Y1959467D01*
X46016666Y72945181D02*
X46349999Y73421372D01*
X46588094Y72945181D02*
X46588094Y73945181D01*
X46588094Y73945181D02*
X46207142Y73945181D01*
X46207142Y73945181D02*
X46111904Y73897562D01*
X46111904Y73897562D02*
X46064285Y73849943D01*
X46064285Y73849943D02*
X46016666Y73754705D01*
X46016666Y73754705D02*
X46016666Y73611848D01*
X46016666Y73611848D02*
X46064285Y73516610D01*
X46064285Y73516610D02*
X46111904Y73468991D01*
X46111904Y73468991D02*
X46207142Y73421372D01*
X46207142Y73421372D02*
X46588094Y73421372D01*
X45064285Y72945181D02*
X45635713Y72945181D01*
X45349999Y72945181D02*
X45349999Y73945181D01*
X45349999Y73945181D02*
X45445237Y73802324D01*
X45445237Y73802324D02*
X45540475Y73707086D01*
X45540475Y73707086D02*
X45635713Y73659467D01*
X27561904Y79795181D02*
X27561904Y78985658D01*
X27561904Y78985658D02*
X27514285Y78890420D01*
X27514285Y78890420D02*
X27466666Y78842800D01*
X27466666Y78842800D02*
X27371428Y78795181D01*
X27371428Y78795181D02*
X27180952Y78795181D01*
X27180952Y78795181D02*
X27085714Y78842800D01*
X27085714Y78842800D02*
X27038095Y78890420D01*
X27038095Y78890420D02*
X26990476Y78985658D01*
X26990476Y78985658D02*
X26990476Y79795181D01*
X26085714Y79461848D02*
X26085714Y78795181D01*
X26323809Y79842800D02*
X26561904Y79128515D01*
X26561904Y79128515D02*
X25942857Y79128515D01*
X19266666Y88945181D02*
X19742856Y88945181D01*
X19742856Y88945181D02*
X19742856Y89945181D01*
X18980951Y89849943D02*
X18933332Y89897562D01*
X18933332Y89897562D02*
X18838094Y89945181D01*
X18838094Y89945181D02*
X18599999Y89945181D01*
X18599999Y89945181D02*
X18504761Y89897562D01*
X18504761Y89897562D02*
X18457142Y89849943D01*
X18457142Y89849943D02*
X18409523Y89754705D01*
X18409523Y89754705D02*
X18409523Y89659467D01*
X18409523Y89659467D02*
X18457142Y89516610D01*
X18457142Y89516610D02*
X19028570Y88945181D01*
X19028570Y88945181D02*
X18409523Y88945181D01*
X23516666Y81395181D02*
X23849999Y81871372D01*
X24088094Y81395181D02*
X24088094Y82395181D01*
X24088094Y82395181D02*
X23707142Y82395181D01*
X23707142Y82395181D02*
X23611904Y82347562D01*
X23611904Y82347562D02*
X23564285Y82299943D01*
X23564285Y82299943D02*
X23516666Y82204705D01*
X23516666Y82204705D02*
X23516666Y82061848D01*
X23516666Y82061848D02*
X23564285Y81966610D01*
X23564285Y81966610D02*
X23611904Y81918991D01*
X23611904Y81918991D02*
X23707142Y81871372D01*
X23707142Y81871372D02*
X24088094Y81871372D01*
X23183332Y82395181D02*
X22516666Y82395181D01*
X22516666Y82395181D02*
X22945237Y81395181D01*
X35866666Y78995181D02*
X36199999Y79471372D01*
X36438094Y78995181D02*
X36438094Y79995181D01*
X36438094Y79995181D02*
X36057142Y79995181D01*
X36057142Y79995181D02*
X35961904Y79947562D01*
X35961904Y79947562D02*
X35914285Y79899943D01*
X35914285Y79899943D02*
X35866666Y79804705D01*
X35866666Y79804705D02*
X35866666Y79661848D01*
X35866666Y79661848D02*
X35914285Y79566610D01*
X35914285Y79566610D02*
X35961904Y79518991D01*
X35961904Y79518991D02*
X36057142Y79471372D01*
X36057142Y79471372D02*
X36438094Y79471372D01*
X34961904Y79995181D02*
X35438094Y79995181D01*
X35438094Y79995181D02*
X35485713Y79518991D01*
X35485713Y79518991D02*
X35438094Y79566610D01*
X35438094Y79566610D02*
X35342856Y79614229D01*
X35342856Y79614229D02*
X35104761Y79614229D01*
X35104761Y79614229D02*
X35009523Y79566610D01*
X35009523Y79566610D02*
X34961904Y79518991D01*
X34961904Y79518991D02*
X34914285Y79423753D01*
X34914285Y79423753D02*
X34914285Y79185658D01*
X34914285Y79185658D02*
X34961904Y79090420D01*
X34961904Y79090420D02*
X35009523Y79042800D01*
X35009523Y79042800D02*
X35104761Y78995181D01*
X35104761Y78995181D02*
X35342856Y78995181D01*
X35342856Y78995181D02*
X35438094Y79042800D01*
X35438094Y79042800D02*
X35485713Y79090420D01*
X44954819Y81185715D02*
X44478628Y81519048D01*
X44954819Y81757143D02*
X43954819Y81757143D01*
X43954819Y81757143D02*
X43954819Y81376191D01*
X43954819Y81376191D02*
X44002438Y81280953D01*
X44002438Y81280953D02*
X44050057Y81233334D01*
X44050057Y81233334D02*
X44145295Y81185715D01*
X44145295Y81185715D02*
X44288152Y81185715D01*
X44288152Y81185715D02*
X44383390Y81233334D01*
X44383390Y81233334D02*
X44431009Y81280953D01*
X44431009Y81280953D02*
X44478628Y81376191D01*
X44478628Y81376191D02*
X44478628Y81757143D01*
X44907200Y80804762D02*
X44954819Y80709524D01*
X44954819Y80709524D02*
X44954819Y80519048D01*
X44954819Y80519048D02*
X44907200Y80423810D01*
X44907200Y80423810D02*
X44811961Y80376191D01*
X44811961Y80376191D02*
X44764342Y80376191D01*
X44764342Y80376191D02*
X44669104Y80423810D01*
X44669104Y80423810D02*
X44621485Y80519048D01*
X44621485Y80519048D02*
X44621485Y80661905D01*
X44621485Y80661905D02*
X44573866Y80757143D01*
X44573866Y80757143D02*
X44478628Y80804762D01*
X44478628Y80804762D02*
X44431009Y80804762D01*
X44431009Y80804762D02*
X44335771Y80757143D01*
X44335771Y80757143D02*
X44288152Y80661905D01*
X44288152Y80661905D02*
X44288152Y80519048D01*
X44288152Y80519048D02*
X44335771Y80423810D01*
X44907200Y79566667D02*
X44954819Y79661905D01*
X44954819Y79661905D02*
X44954819Y79852381D01*
X44954819Y79852381D02*
X44907200Y79947619D01*
X44907200Y79947619D02*
X44811961Y79995238D01*
X44811961Y79995238D02*
X44431009Y79995238D01*
X44431009Y79995238D02*
X44335771Y79947619D01*
X44335771Y79947619D02*
X44288152Y79852381D01*
X44288152Y79852381D02*
X44288152Y79661905D01*
X44288152Y79661905D02*
X44335771Y79566667D01*
X44335771Y79566667D02*
X44431009Y79519048D01*
X44431009Y79519048D02*
X44526247Y79519048D01*
X44526247Y79519048D02*
X44621485Y79995238D01*
X44288152Y79233333D02*
X44288152Y78852381D01*
X43954819Y79090476D02*
X44811961Y79090476D01*
X44811961Y79090476D02*
X44907200Y79042857D01*
X44907200Y79042857D02*
X44954819Y78947619D01*
X44954819Y78947619D02*
X44954819Y78852381D01*
X44954819Y77995238D02*
X44954819Y78566666D01*
X44954819Y78280952D02*
X43954819Y78280952D01*
X43954819Y78280952D02*
X44097676Y78376190D01*
X44097676Y78376190D02*
X44192914Y78471428D01*
X44192914Y78471428D02*
X44240533Y78566666D01*
X46107738Y86037443D02*
X46202976Y86085062D01*
X46202976Y86085062D02*
X46298214Y86180300D01*
X46298214Y86180300D02*
X46441071Y86323158D01*
X46441071Y86323158D02*
X46536309Y86370777D01*
X46536309Y86370777D02*
X46631547Y86370777D01*
X46583928Y86132681D02*
X46679166Y86180300D01*
X46679166Y86180300D02*
X46774404Y86275539D01*
X46774404Y86275539D02*
X46822023Y86466015D01*
X46822023Y86466015D02*
X46822023Y86799348D01*
X46822023Y86799348D02*
X46774404Y86989824D01*
X46774404Y86989824D02*
X46679166Y87085062D01*
X46679166Y87085062D02*
X46583928Y87132681D01*
X46583928Y87132681D02*
X46393452Y87132681D01*
X46393452Y87132681D02*
X46298214Y87085062D01*
X46298214Y87085062D02*
X46202976Y86989824D01*
X46202976Y86989824D02*
X46155357Y86799348D01*
X46155357Y86799348D02*
X46155357Y86466015D01*
X46155357Y86466015D02*
X46202976Y86275539D01*
X46202976Y86275539D02*
X46298214Y86180300D01*
X46298214Y86180300D02*
X46393452Y86132681D01*
X46393452Y86132681D02*
X46583928Y86132681D01*
X45774404Y87037443D02*
X45726785Y87085062D01*
X45726785Y87085062D02*
X45631547Y87132681D01*
X45631547Y87132681D02*
X45393452Y87132681D01*
X45393452Y87132681D02*
X45298214Y87085062D01*
X45298214Y87085062D02*
X45250595Y87037443D01*
X45250595Y87037443D02*
X45202976Y86942205D01*
X45202976Y86942205D02*
X45202976Y86846967D01*
X45202976Y86846967D02*
X45250595Y86704110D01*
X45250595Y86704110D02*
X45822023Y86132681D01*
X45822023Y86132681D02*
X45202976Y86132681D01*
X8716666Y11485420D02*
X8764285Y11437800D01*
X8764285Y11437800D02*
X8907142Y11390181D01*
X8907142Y11390181D02*
X9002380Y11390181D01*
X9002380Y11390181D02*
X9145237Y11437800D01*
X9145237Y11437800D02*
X9240475Y11533039D01*
X9240475Y11533039D02*
X9288094Y11628277D01*
X9288094Y11628277D02*
X9335713Y11818753D01*
X9335713Y11818753D02*
X9335713Y11961610D01*
X9335713Y11961610D02*
X9288094Y12152086D01*
X9288094Y12152086D02*
X9240475Y12247324D01*
X9240475Y12247324D02*
X9145237Y12342562D01*
X9145237Y12342562D02*
X9002380Y12390181D01*
X9002380Y12390181D02*
X8907142Y12390181D01*
X8907142Y12390181D02*
X8764285Y12342562D01*
X8764285Y12342562D02*
X8716666Y12294943D01*
X8335713Y12294943D02*
X8288094Y12342562D01*
X8288094Y12342562D02*
X8192856Y12390181D01*
X8192856Y12390181D02*
X7954761Y12390181D01*
X7954761Y12390181D02*
X7859523Y12342562D01*
X7859523Y12342562D02*
X7811904Y12294943D01*
X7811904Y12294943D02*
X7764285Y12199705D01*
X7764285Y12199705D02*
X7764285Y12104467D01*
X7764285Y12104467D02*
X7811904Y11961610D01*
X7811904Y11961610D02*
X8383332Y11390181D01*
X8383332Y11390181D02*
X7764285Y11390181D01*
X19616666Y73795181D02*
X19949999Y74271372D01*
X20188094Y73795181D02*
X20188094Y74795181D01*
X20188094Y74795181D02*
X19807142Y74795181D01*
X19807142Y74795181D02*
X19711904Y74747562D01*
X19711904Y74747562D02*
X19664285Y74699943D01*
X19664285Y74699943D02*
X19616666Y74604705D01*
X19616666Y74604705D02*
X19616666Y74461848D01*
X19616666Y74461848D02*
X19664285Y74366610D01*
X19664285Y74366610D02*
X19711904Y74318991D01*
X19711904Y74318991D02*
X19807142Y74271372D01*
X19807142Y74271372D02*
X20188094Y74271372D01*
X19140475Y73795181D02*
X18949999Y73795181D01*
X18949999Y73795181D02*
X18854761Y73842800D01*
X18854761Y73842800D02*
X18807142Y73890420D01*
X18807142Y73890420D02*
X18711904Y74033277D01*
X18711904Y74033277D02*
X18664285Y74223753D01*
X18664285Y74223753D02*
X18664285Y74604705D01*
X18664285Y74604705D02*
X18711904Y74699943D01*
X18711904Y74699943D02*
X18759523Y74747562D01*
X18759523Y74747562D02*
X18854761Y74795181D01*
X18854761Y74795181D02*
X19045237Y74795181D01*
X19045237Y74795181D02*
X19140475Y74747562D01*
X19140475Y74747562D02*
X19188094Y74699943D01*
X19188094Y74699943D02*
X19235713Y74604705D01*
X19235713Y74604705D02*
X19235713Y74366610D01*
X19235713Y74366610D02*
X19188094Y74271372D01*
X19188094Y74271372D02*
X19140475Y74223753D01*
X19140475Y74223753D02*
X19045237Y74176134D01*
X19045237Y74176134D02*
X18854761Y74176134D01*
X18854761Y74176134D02*
X18759523Y74223753D01*
X18759523Y74223753D02*
X18711904Y74271372D01*
X18711904Y74271372D02*
X18664285Y74366610D01*
X14716666Y16590181D02*
X15192856Y16590181D01*
X15192856Y16590181D02*
X15192856Y17590181D01*
X13859523Y16590181D02*
X14430951Y16590181D01*
X14145237Y16590181D02*
X14145237Y17590181D01*
X14145237Y17590181D02*
X14240475Y17447324D01*
X14240475Y17447324D02*
X14335713Y17352086D01*
X14335713Y17352086D02*
X14430951Y17304467D01*
X32392857Y50395181D02*
X32726190Y50871372D01*
X32964285Y50395181D02*
X32964285Y51395181D01*
X32964285Y51395181D02*
X32583333Y51395181D01*
X32583333Y51395181D02*
X32488095Y51347562D01*
X32488095Y51347562D02*
X32440476Y51299943D01*
X32440476Y51299943D02*
X32392857Y51204705D01*
X32392857Y51204705D02*
X32392857Y51061848D01*
X32392857Y51061848D02*
X32440476Y50966610D01*
X32440476Y50966610D02*
X32488095Y50918991D01*
X32488095Y50918991D02*
X32583333Y50871372D01*
X32583333Y50871372D02*
X32964285Y50871372D01*
X31440476Y50395181D02*
X32011904Y50395181D01*
X31726190Y50395181D02*
X31726190Y51395181D01*
X31726190Y51395181D02*
X31821428Y51252324D01*
X31821428Y51252324D02*
X31916666Y51157086D01*
X31916666Y51157086D02*
X32011904Y51109467D01*
X31059523Y51299943D02*
X31011904Y51347562D01*
X31011904Y51347562D02*
X30916666Y51395181D01*
X30916666Y51395181D02*
X30678571Y51395181D01*
X30678571Y51395181D02*
X30583333Y51347562D01*
X30583333Y51347562D02*
X30535714Y51299943D01*
X30535714Y51299943D02*
X30488095Y51204705D01*
X30488095Y51204705D02*
X30488095Y51109467D01*
X30488095Y51109467D02*
X30535714Y50966610D01*
X30535714Y50966610D02*
X31107142Y50395181D01*
X31107142Y50395181D02*
X30488095Y50395181D01*
X5911904Y15190181D02*
X5911904Y14380658D01*
X5911904Y14380658D02*
X5864285Y14285420D01*
X5864285Y14285420D02*
X5816666Y14237800D01*
X5816666Y14237800D02*
X5721428Y14190181D01*
X5721428Y14190181D02*
X5530952Y14190181D01*
X5530952Y14190181D02*
X5435714Y14237800D01*
X5435714Y14237800D02*
X5388095Y14285420D01*
X5388095Y14285420D02*
X5340476Y14380658D01*
X5340476Y14380658D02*
X5340476Y15190181D01*
X4340476Y14190181D02*
X4911904Y14190181D01*
X4626190Y14190181D02*
X4626190Y15190181D01*
X4626190Y15190181D02*
X4721428Y15047324D01*
X4721428Y15047324D02*
X4816666Y14952086D01*
X4816666Y14952086D02*
X4911904Y14904467D01*
X28139580Y86866667D02*
X28187200Y86914286D01*
X28187200Y86914286D02*
X28234819Y87057143D01*
X28234819Y87057143D02*
X28234819Y87152381D01*
X28234819Y87152381D02*
X28187200Y87295238D01*
X28187200Y87295238D02*
X28091961Y87390476D01*
X28091961Y87390476D02*
X27996723Y87438095D01*
X27996723Y87438095D02*
X27806247Y87485714D01*
X27806247Y87485714D02*
X27663390Y87485714D01*
X27663390Y87485714D02*
X27472914Y87438095D01*
X27472914Y87438095D02*
X27377676Y87390476D01*
X27377676Y87390476D02*
X27282438Y87295238D01*
X27282438Y87295238D02*
X27234819Y87152381D01*
X27234819Y87152381D02*
X27234819Y87057143D01*
X27234819Y87057143D02*
X27282438Y86914286D01*
X27282438Y86914286D02*
X27330057Y86866667D01*
X27234819Y86533333D02*
X27234819Y85866667D01*
X27234819Y85866667D02*
X28234819Y86295238D01*
X19166666Y85190420D02*
X19214285Y85142800D01*
X19214285Y85142800D02*
X19357142Y85095181D01*
X19357142Y85095181D02*
X19452380Y85095181D01*
X19452380Y85095181D02*
X19595237Y85142800D01*
X19595237Y85142800D02*
X19690475Y85238039D01*
X19690475Y85238039D02*
X19738094Y85333277D01*
X19738094Y85333277D02*
X19785713Y85523753D01*
X19785713Y85523753D02*
X19785713Y85666610D01*
X19785713Y85666610D02*
X19738094Y85857086D01*
X19738094Y85857086D02*
X19690475Y85952324D01*
X19690475Y85952324D02*
X19595237Y86047562D01*
X19595237Y86047562D02*
X19452380Y86095181D01*
X19452380Y86095181D02*
X19357142Y86095181D01*
X19357142Y86095181D02*
X19214285Y86047562D01*
X19214285Y86047562D02*
X19166666Y85999943D01*
X18595237Y85666610D02*
X18690475Y85714229D01*
X18690475Y85714229D02*
X18738094Y85761848D01*
X18738094Y85761848D02*
X18785713Y85857086D01*
X18785713Y85857086D02*
X18785713Y85904705D01*
X18785713Y85904705D02*
X18738094Y85999943D01*
X18738094Y85999943D02*
X18690475Y86047562D01*
X18690475Y86047562D02*
X18595237Y86095181D01*
X18595237Y86095181D02*
X18404761Y86095181D01*
X18404761Y86095181D02*
X18309523Y86047562D01*
X18309523Y86047562D02*
X18261904Y85999943D01*
X18261904Y85999943D02*
X18214285Y85904705D01*
X18214285Y85904705D02*
X18214285Y85857086D01*
X18214285Y85857086D02*
X18261904Y85761848D01*
X18261904Y85761848D02*
X18309523Y85714229D01*
X18309523Y85714229D02*
X18404761Y85666610D01*
X18404761Y85666610D02*
X18595237Y85666610D01*
X18595237Y85666610D02*
X18690475Y85618991D01*
X18690475Y85618991D02*
X18738094Y85571372D01*
X18738094Y85571372D02*
X18785713Y85476134D01*
X18785713Y85476134D02*
X18785713Y85285658D01*
X18785713Y85285658D02*
X18738094Y85190420D01*
X18738094Y85190420D02*
X18690475Y85142800D01*
X18690475Y85142800D02*
X18595237Y85095181D01*
X18595237Y85095181D02*
X18404761Y85095181D01*
X18404761Y85095181D02*
X18309523Y85142800D01*
X18309523Y85142800D02*
X18261904Y85190420D01*
X18261904Y85190420D02*
X18214285Y85285658D01*
X18214285Y85285658D02*
X18214285Y85476134D01*
X18214285Y85476134D02*
X18261904Y85571372D01*
X18261904Y85571372D02*
X18309523Y85618991D01*
X18309523Y85618991D02*
X18404761Y85666610D01*
X25592857Y68895181D02*
X25926190Y69371372D01*
X26164285Y68895181D02*
X26164285Y69895181D01*
X26164285Y69895181D02*
X25783333Y69895181D01*
X25783333Y69895181D02*
X25688095Y69847562D01*
X25688095Y69847562D02*
X25640476Y69799943D01*
X25640476Y69799943D02*
X25592857Y69704705D01*
X25592857Y69704705D02*
X25592857Y69561848D01*
X25592857Y69561848D02*
X25640476Y69466610D01*
X25640476Y69466610D02*
X25688095Y69418991D01*
X25688095Y69418991D02*
X25783333Y69371372D01*
X25783333Y69371372D02*
X26164285Y69371372D01*
X24640476Y68895181D02*
X25211904Y68895181D01*
X24926190Y68895181D02*
X24926190Y69895181D01*
X24926190Y69895181D02*
X25021428Y69752324D01*
X25021428Y69752324D02*
X25116666Y69657086D01*
X25116666Y69657086D02*
X25211904Y69609467D01*
X24021428Y69895181D02*
X23926190Y69895181D01*
X23926190Y69895181D02*
X23830952Y69847562D01*
X23830952Y69847562D02*
X23783333Y69799943D01*
X23783333Y69799943D02*
X23735714Y69704705D01*
X23735714Y69704705D02*
X23688095Y69514229D01*
X23688095Y69514229D02*
X23688095Y69276134D01*
X23688095Y69276134D02*
X23735714Y69085658D01*
X23735714Y69085658D02*
X23783333Y68990420D01*
X23783333Y68990420D02*
X23830952Y68942800D01*
X23830952Y68942800D02*
X23926190Y68895181D01*
X23926190Y68895181D02*
X24021428Y68895181D01*
X24021428Y68895181D02*
X24116666Y68942800D01*
X24116666Y68942800D02*
X24164285Y68990420D01*
X24164285Y68990420D02*
X24211904Y69085658D01*
X24211904Y69085658D02*
X24259523Y69276134D01*
X24259523Y69276134D02*
X24259523Y69514229D01*
X24259523Y69514229D02*
X24211904Y69704705D01*
X24211904Y69704705D02*
X24164285Y69799943D01*
X24164285Y69799943D02*
X24116666Y69847562D01*
X24116666Y69847562D02*
X24021428Y69895181D01*
X58366666Y31545181D02*
X58699999Y32021372D01*
X58938094Y31545181D02*
X58938094Y32545181D01*
X58938094Y32545181D02*
X58557142Y32545181D01*
X58557142Y32545181D02*
X58461904Y32497562D01*
X58461904Y32497562D02*
X58414285Y32449943D01*
X58414285Y32449943D02*
X58366666Y32354705D01*
X58366666Y32354705D02*
X58366666Y32211848D01*
X58366666Y32211848D02*
X58414285Y32116610D01*
X58414285Y32116610D02*
X58461904Y32068991D01*
X58461904Y32068991D02*
X58557142Y32021372D01*
X58557142Y32021372D02*
X58938094Y32021372D01*
X57509523Y32211848D02*
X57509523Y31545181D01*
X57747618Y32592800D02*
X57985713Y31878515D01*
X57985713Y31878515D02*
X57366666Y31878515D01*
X17692857Y82240420D02*
X17740476Y82192800D01*
X17740476Y82192800D02*
X17883333Y82145181D01*
X17883333Y82145181D02*
X17978571Y82145181D01*
X17978571Y82145181D02*
X18121428Y82192800D01*
X18121428Y82192800D02*
X18216666Y82288039D01*
X18216666Y82288039D02*
X18264285Y82383277D01*
X18264285Y82383277D02*
X18311904Y82573753D01*
X18311904Y82573753D02*
X18311904Y82716610D01*
X18311904Y82716610D02*
X18264285Y82907086D01*
X18264285Y82907086D02*
X18216666Y83002324D01*
X18216666Y83002324D02*
X18121428Y83097562D01*
X18121428Y83097562D02*
X17978571Y83145181D01*
X17978571Y83145181D02*
X17883333Y83145181D01*
X17883333Y83145181D02*
X17740476Y83097562D01*
X17740476Y83097562D02*
X17692857Y83049943D01*
X16740476Y82145181D02*
X17311904Y82145181D01*
X17026190Y82145181D02*
X17026190Y83145181D01*
X17026190Y83145181D02*
X17121428Y83002324D01*
X17121428Y83002324D02*
X17216666Y82907086D01*
X17216666Y82907086D02*
X17311904Y82859467D01*
X16359523Y83049943D02*
X16311904Y83097562D01*
X16311904Y83097562D02*
X16216666Y83145181D01*
X16216666Y83145181D02*
X15978571Y83145181D01*
X15978571Y83145181D02*
X15883333Y83097562D01*
X15883333Y83097562D02*
X15835714Y83049943D01*
X15835714Y83049943D02*
X15788095Y82954705D01*
X15788095Y82954705D02*
X15788095Y82859467D01*
X15788095Y82859467D02*
X15835714Y82716610D01*
X15835714Y82716610D02*
X16407142Y82145181D01*
X16407142Y82145181D02*
X15788095Y82145181D01*
X17642857Y79740420D02*
X17690476Y79692800D01*
X17690476Y79692800D02*
X17833333Y79645181D01*
X17833333Y79645181D02*
X17928571Y79645181D01*
X17928571Y79645181D02*
X18071428Y79692800D01*
X18071428Y79692800D02*
X18166666Y79788039D01*
X18166666Y79788039D02*
X18214285Y79883277D01*
X18214285Y79883277D02*
X18261904Y80073753D01*
X18261904Y80073753D02*
X18261904Y80216610D01*
X18261904Y80216610D02*
X18214285Y80407086D01*
X18214285Y80407086D02*
X18166666Y80502324D01*
X18166666Y80502324D02*
X18071428Y80597562D01*
X18071428Y80597562D02*
X17928571Y80645181D01*
X17928571Y80645181D02*
X17833333Y80645181D01*
X17833333Y80645181D02*
X17690476Y80597562D01*
X17690476Y80597562D02*
X17642857Y80549943D01*
X16690476Y79645181D02*
X17261904Y79645181D01*
X16976190Y79645181D02*
X16976190Y80645181D01*
X16976190Y80645181D02*
X17071428Y80502324D01*
X17071428Y80502324D02*
X17166666Y80407086D01*
X17166666Y80407086D02*
X17261904Y80359467D01*
X16071428Y80645181D02*
X15976190Y80645181D01*
X15976190Y80645181D02*
X15880952Y80597562D01*
X15880952Y80597562D02*
X15833333Y80549943D01*
X15833333Y80549943D02*
X15785714Y80454705D01*
X15785714Y80454705D02*
X15738095Y80264229D01*
X15738095Y80264229D02*
X15738095Y80026134D01*
X15738095Y80026134D02*
X15785714Y79835658D01*
X15785714Y79835658D02*
X15833333Y79740420D01*
X15833333Y79740420D02*
X15880952Y79692800D01*
X15880952Y79692800D02*
X15976190Y79645181D01*
X15976190Y79645181D02*
X16071428Y79645181D01*
X16071428Y79645181D02*
X16166666Y79692800D01*
X16166666Y79692800D02*
X16214285Y79740420D01*
X16214285Y79740420D02*
X16261904Y79835658D01*
X16261904Y79835658D02*
X16309523Y80026134D01*
X16309523Y80026134D02*
X16309523Y80264229D01*
X16309523Y80264229D02*
X16261904Y80454705D01*
X16261904Y80454705D02*
X16214285Y80549943D01*
X16214285Y80549943D02*
X16166666Y80597562D01*
X16166666Y80597562D02*
X16071428Y80645181D01*
X27695238Y94199943D02*
X27790476Y94247562D01*
X27790476Y94247562D02*
X27885714Y94342800D01*
X27885714Y94342800D02*
X28028571Y94485658D01*
X28028571Y94485658D02*
X28123809Y94533277D01*
X28123809Y94533277D02*
X28219047Y94533277D01*
X28171428Y94295181D02*
X28266666Y94342800D01*
X28266666Y94342800D02*
X28361904Y94438039D01*
X28361904Y94438039D02*
X28409523Y94628515D01*
X28409523Y94628515D02*
X28409523Y94961848D01*
X28409523Y94961848D02*
X28361904Y95152324D01*
X28361904Y95152324D02*
X28266666Y95247562D01*
X28266666Y95247562D02*
X28171428Y95295181D01*
X28171428Y95295181D02*
X27980952Y95295181D01*
X27980952Y95295181D02*
X27885714Y95247562D01*
X27885714Y95247562D02*
X27790476Y95152324D01*
X27790476Y95152324D02*
X27742857Y94961848D01*
X27742857Y94961848D02*
X27742857Y94628515D01*
X27742857Y94628515D02*
X27790476Y94438039D01*
X27790476Y94438039D02*
X27885714Y94342800D01*
X27885714Y94342800D02*
X27980952Y94295181D01*
X27980952Y94295181D02*
X28171428Y94295181D01*
X26790476Y94295181D02*
X27361904Y94295181D01*
X27076190Y94295181D02*
X27076190Y95295181D01*
X27076190Y95295181D02*
X27171428Y95152324D01*
X27171428Y95152324D02*
X27266666Y95057086D01*
X27266666Y95057086D02*
X27361904Y95009467D01*
X36692857Y50345181D02*
X37026190Y50821372D01*
X37264285Y50345181D02*
X37264285Y51345181D01*
X37264285Y51345181D02*
X36883333Y51345181D01*
X36883333Y51345181D02*
X36788095Y51297562D01*
X36788095Y51297562D02*
X36740476Y51249943D01*
X36740476Y51249943D02*
X36692857Y51154705D01*
X36692857Y51154705D02*
X36692857Y51011848D01*
X36692857Y51011848D02*
X36740476Y50916610D01*
X36740476Y50916610D02*
X36788095Y50868991D01*
X36788095Y50868991D02*
X36883333Y50821372D01*
X36883333Y50821372D02*
X37264285Y50821372D01*
X35740476Y50345181D02*
X36311904Y50345181D01*
X36026190Y50345181D02*
X36026190Y51345181D01*
X36026190Y51345181D02*
X36121428Y51202324D01*
X36121428Y51202324D02*
X36216666Y51107086D01*
X36216666Y51107086D02*
X36311904Y51059467D01*
X34788095Y50345181D02*
X35359523Y50345181D01*
X35073809Y50345181D02*
X35073809Y51345181D01*
X35073809Y51345181D02*
X35169047Y51202324D01*
X35169047Y51202324D02*
X35264285Y51107086D01*
X35264285Y51107086D02*
X35359523Y51059467D01*
X29142857Y68940420D02*
X29190476Y68892800D01*
X29190476Y68892800D02*
X29333333Y68845181D01*
X29333333Y68845181D02*
X29428571Y68845181D01*
X29428571Y68845181D02*
X29571428Y68892800D01*
X29571428Y68892800D02*
X29666666Y68988039D01*
X29666666Y68988039D02*
X29714285Y69083277D01*
X29714285Y69083277D02*
X29761904Y69273753D01*
X29761904Y69273753D02*
X29761904Y69416610D01*
X29761904Y69416610D02*
X29714285Y69607086D01*
X29714285Y69607086D02*
X29666666Y69702324D01*
X29666666Y69702324D02*
X29571428Y69797562D01*
X29571428Y69797562D02*
X29428571Y69845181D01*
X29428571Y69845181D02*
X29333333Y69845181D01*
X29333333Y69845181D02*
X29190476Y69797562D01*
X29190476Y69797562D02*
X29142857Y69749943D01*
X28190476Y68845181D02*
X28761904Y68845181D01*
X28476190Y68845181D02*
X28476190Y69845181D01*
X28476190Y69845181D02*
X28571428Y69702324D01*
X28571428Y69702324D02*
X28666666Y69607086D01*
X28666666Y69607086D02*
X28761904Y69559467D01*
X27333333Y69511848D02*
X27333333Y68845181D01*
X27571428Y69892800D02*
X27809523Y69178515D01*
X27809523Y69178515D02*
X27190476Y69178515D01*
X30916666Y84540420D02*
X30964285Y84492800D01*
X30964285Y84492800D02*
X31107142Y84445181D01*
X31107142Y84445181D02*
X31202380Y84445181D01*
X31202380Y84445181D02*
X31345237Y84492800D01*
X31345237Y84492800D02*
X31440475Y84588039D01*
X31440475Y84588039D02*
X31488094Y84683277D01*
X31488094Y84683277D02*
X31535713Y84873753D01*
X31535713Y84873753D02*
X31535713Y85016610D01*
X31535713Y85016610D02*
X31488094Y85207086D01*
X31488094Y85207086D02*
X31440475Y85302324D01*
X31440475Y85302324D02*
X31345237Y85397562D01*
X31345237Y85397562D02*
X31202380Y85445181D01*
X31202380Y85445181D02*
X31107142Y85445181D01*
X31107142Y85445181D02*
X30964285Y85397562D01*
X30964285Y85397562D02*
X30916666Y85349943D01*
X30011904Y85445181D02*
X30488094Y85445181D01*
X30488094Y85445181D02*
X30535713Y84968991D01*
X30535713Y84968991D02*
X30488094Y85016610D01*
X30488094Y85016610D02*
X30392856Y85064229D01*
X30392856Y85064229D02*
X30154761Y85064229D01*
X30154761Y85064229D02*
X30059523Y85016610D01*
X30059523Y85016610D02*
X30011904Y84968991D01*
X30011904Y84968991D02*
X29964285Y84873753D01*
X29964285Y84873753D02*
X29964285Y84635658D01*
X29964285Y84635658D02*
X30011904Y84540420D01*
X30011904Y84540420D02*
X30059523Y84492800D01*
X30059523Y84492800D02*
X30154761Y84445181D01*
X30154761Y84445181D02*
X30392856Y84445181D01*
X30392856Y84445181D02*
X30488094Y84492800D01*
X30488094Y84492800D02*
X30535713Y84540420D01*
X14816666Y19985420D02*
X14864285Y19937800D01*
X14864285Y19937800D02*
X15007142Y19890181D01*
X15007142Y19890181D02*
X15102380Y19890181D01*
X15102380Y19890181D02*
X15245237Y19937800D01*
X15245237Y19937800D02*
X15340475Y20033039D01*
X15340475Y20033039D02*
X15388094Y20128277D01*
X15388094Y20128277D02*
X15435713Y20318753D01*
X15435713Y20318753D02*
X15435713Y20461610D01*
X15435713Y20461610D02*
X15388094Y20652086D01*
X15388094Y20652086D02*
X15340475Y20747324D01*
X15340475Y20747324D02*
X15245237Y20842562D01*
X15245237Y20842562D02*
X15102380Y20890181D01*
X15102380Y20890181D02*
X15007142Y20890181D01*
X15007142Y20890181D02*
X14864285Y20842562D01*
X14864285Y20842562D02*
X14816666Y20794943D01*
X14483332Y20890181D02*
X13864285Y20890181D01*
X13864285Y20890181D02*
X14197618Y20509229D01*
X14197618Y20509229D02*
X14054761Y20509229D01*
X14054761Y20509229D02*
X13959523Y20461610D01*
X13959523Y20461610D02*
X13911904Y20413991D01*
X13911904Y20413991D02*
X13864285Y20318753D01*
X13864285Y20318753D02*
X13864285Y20080658D01*
X13864285Y20080658D02*
X13911904Y19985420D01*
X13911904Y19985420D02*
X13959523Y19937800D01*
X13959523Y19937800D02*
X14054761Y19890181D01*
X14054761Y19890181D02*
X14340475Y19890181D01*
X14340475Y19890181D02*
X14435713Y19937800D01*
X14435713Y19937800D02*
X14483332Y19985420D01*
X46416666Y77845181D02*
X46749999Y78321372D01*
X46988094Y77845181D02*
X46988094Y78845181D01*
X46988094Y78845181D02*
X46607142Y78845181D01*
X46607142Y78845181D02*
X46511904Y78797562D01*
X46511904Y78797562D02*
X46464285Y78749943D01*
X46464285Y78749943D02*
X46416666Y78654705D01*
X46416666Y78654705D02*
X46416666Y78511848D01*
X46416666Y78511848D02*
X46464285Y78416610D01*
X46464285Y78416610D02*
X46511904Y78368991D01*
X46511904Y78368991D02*
X46607142Y78321372D01*
X46607142Y78321372D02*
X46988094Y78321372D01*
X45559523Y78845181D02*
X45749999Y78845181D01*
X45749999Y78845181D02*
X45845237Y78797562D01*
X45845237Y78797562D02*
X45892856Y78749943D01*
X45892856Y78749943D02*
X45988094Y78607086D01*
X45988094Y78607086D02*
X46035713Y78416610D01*
X46035713Y78416610D02*
X46035713Y78035658D01*
X46035713Y78035658D02*
X45988094Y77940420D01*
X45988094Y77940420D02*
X45940475Y77892800D01*
X45940475Y77892800D02*
X45845237Y77845181D01*
X45845237Y77845181D02*
X45654761Y77845181D01*
X45654761Y77845181D02*
X45559523Y77892800D01*
X45559523Y77892800D02*
X45511904Y77940420D01*
X45511904Y77940420D02*
X45464285Y78035658D01*
X45464285Y78035658D02*
X45464285Y78273753D01*
X45464285Y78273753D02*
X45511904Y78368991D01*
X45511904Y78368991D02*
X45559523Y78416610D01*
X45559523Y78416610D02*
X45654761Y78464229D01*
X45654761Y78464229D02*
X45845237Y78464229D01*
X45845237Y78464229D02*
X45940475Y78416610D01*
X45940475Y78416610D02*
X45988094Y78368991D01*
X45988094Y78368991D02*
X46035713Y78273753D01*
X14816666Y22985420D02*
X14864285Y22937800D01*
X14864285Y22937800D02*
X15007142Y22890181D01*
X15007142Y22890181D02*
X15102380Y22890181D01*
X15102380Y22890181D02*
X15245237Y22937800D01*
X15245237Y22937800D02*
X15340475Y23033039D01*
X15340475Y23033039D02*
X15388094Y23128277D01*
X15388094Y23128277D02*
X15435713Y23318753D01*
X15435713Y23318753D02*
X15435713Y23461610D01*
X15435713Y23461610D02*
X15388094Y23652086D01*
X15388094Y23652086D02*
X15340475Y23747324D01*
X15340475Y23747324D02*
X15245237Y23842562D01*
X15245237Y23842562D02*
X15102380Y23890181D01*
X15102380Y23890181D02*
X15007142Y23890181D01*
X15007142Y23890181D02*
X14864285Y23842562D01*
X14864285Y23842562D02*
X14816666Y23794943D01*
X13959523Y23556848D02*
X13959523Y22890181D01*
X14197618Y23937800D02*
X14435713Y23223515D01*
X14435713Y23223515D02*
X13816666Y23223515D01*
X33716666Y83995181D02*
X34049999Y84471372D01*
X34288094Y83995181D02*
X34288094Y84995181D01*
X34288094Y84995181D02*
X33907142Y84995181D01*
X33907142Y84995181D02*
X33811904Y84947562D01*
X33811904Y84947562D02*
X33764285Y84899943D01*
X33764285Y84899943D02*
X33716666Y84804705D01*
X33716666Y84804705D02*
X33716666Y84661848D01*
X33716666Y84661848D02*
X33764285Y84566610D01*
X33764285Y84566610D02*
X33811904Y84518991D01*
X33811904Y84518991D02*
X33907142Y84471372D01*
X33907142Y84471372D02*
X34288094Y84471372D01*
X33145237Y84566610D02*
X33240475Y84614229D01*
X33240475Y84614229D02*
X33288094Y84661848D01*
X33288094Y84661848D02*
X33335713Y84757086D01*
X33335713Y84757086D02*
X33335713Y84804705D01*
X33335713Y84804705D02*
X33288094Y84899943D01*
X33288094Y84899943D02*
X33240475Y84947562D01*
X33240475Y84947562D02*
X33145237Y84995181D01*
X33145237Y84995181D02*
X32954761Y84995181D01*
X32954761Y84995181D02*
X32859523Y84947562D01*
X32859523Y84947562D02*
X32811904Y84899943D01*
X32811904Y84899943D02*
X32764285Y84804705D01*
X32764285Y84804705D02*
X32764285Y84757086D01*
X32764285Y84757086D02*
X32811904Y84661848D01*
X32811904Y84661848D02*
X32859523Y84614229D01*
X32859523Y84614229D02*
X32954761Y84566610D01*
X32954761Y84566610D02*
X33145237Y84566610D01*
X33145237Y84566610D02*
X33240475Y84518991D01*
X33240475Y84518991D02*
X33288094Y84471372D01*
X33288094Y84471372D02*
X33335713Y84376134D01*
X33335713Y84376134D02*
X33335713Y84185658D01*
X33335713Y84185658D02*
X33288094Y84090420D01*
X33288094Y84090420D02*
X33240475Y84042800D01*
X33240475Y84042800D02*
X33145237Y83995181D01*
X33145237Y83995181D02*
X32954761Y83995181D01*
X32954761Y83995181D02*
X32859523Y84042800D01*
X32859523Y84042800D02*
X32811904Y84090420D01*
X32811904Y84090420D02*
X32764285Y84185658D01*
X32764285Y84185658D02*
X32764285Y84376134D01*
X32764285Y84376134D02*
X32811904Y84471372D01*
X32811904Y84471372D02*
X32859523Y84518991D01*
X32859523Y84518991D02*
X32954761Y84566610D01*
X43466666Y72990420D02*
X43514285Y72942800D01*
X43514285Y72942800D02*
X43657142Y72895181D01*
X43657142Y72895181D02*
X43752380Y72895181D01*
X43752380Y72895181D02*
X43895237Y72942800D01*
X43895237Y72942800D02*
X43990475Y73038039D01*
X43990475Y73038039D02*
X44038094Y73133277D01*
X44038094Y73133277D02*
X44085713Y73323753D01*
X44085713Y73323753D02*
X44085713Y73466610D01*
X44085713Y73466610D02*
X44038094Y73657086D01*
X44038094Y73657086D02*
X43990475Y73752324D01*
X43990475Y73752324D02*
X43895237Y73847562D01*
X43895237Y73847562D02*
X43752380Y73895181D01*
X43752380Y73895181D02*
X43657142Y73895181D01*
X43657142Y73895181D02*
X43514285Y73847562D01*
X43514285Y73847562D02*
X43466666Y73799943D01*
X42609523Y73895181D02*
X42799999Y73895181D01*
X42799999Y73895181D02*
X42895237Y73847562D01*
X42895237Y73847562D02*
X42942856Y73799943D01*
X42942856Y73799943D02*
X43038094Y73657086D01*
X43038094Y73657086D02*
X43085713Y73466610D01*
X43085713Y73466610D02*
X43085713Y73085658D01*
X43085713Y73085658D02*
X43038094Y72990420D01*
X43038094Y72990420D02*
X42990475Y72942800D01*
X42990475Y72942800D02*
X42895237Y72895181D01*
X42895237Y72895181D02*
X42704761Y72895181D01*
X42704761Y72895181D02*
X42609523Y72942800D01*
X42609523Y72942800D02*
X42561904Y72990420D01*
X42561904Y72990420D02*
X42514285Y73085658D01*
X42514285Y73085658D02*
X42514285Y73323753D01*
X42514285Y73323753D02*
X42561904Y73418991D01*
X42561904Y73418991D02*
X42609523Y73466610D01*
X42609523Y73466610D02*
X42704761Y73514229D01*
X42704761Y73514229D02*
X42895237Y73514229D01*
X42895237Y73514229D02*
X42990475Y73466610D01*
X42990475Y73466610D02*
X43038094Y73418991D01*
X43038094Y73418991D02*
X43085713Y73323753D01*
X39838094Y73445181D02*
X39838094Y74445181D01*
X39838094Y74445181D02*
X39599999Y74445181D01*
X39599999Y74445181D02*
X39457142Y74397562D01*
X39457142Y74397562D02*
X39361904Y74302324D01*
X39361904Y74302324D02*
X39314285Y74207086D01*
X39314285Y74207086D02*
X39266666Y74016610D01*
X39266666Y74016610D02*
X39266666Y73873753D01*
X39266666Y73873753D02*
X39314285Y73683277D01*
X39314285Y73683277D02*
X39361904Y73588039D01*
X39361904Y73588039D02*
X39457142Y73492800D01*
X39457142Y73492800D02*
X39599999Y73445181D01*
X39599999Y73445181D02*
X39838094Y73445181D01*
X38933332Y74445181D02*
X38314285Y74445181D01*
X38314285Y74445181D02*
X38647618Y74064229D01*
X38647618Y74064229D02*
X38504761Y74064229D01*
X38504761Y74064229D02*
X38409523Y74016610D01*
X38409523Y74016610D02*
X38361904Y73968991D01*
X38361904Y73968991D02*
X38314285Y73873753D01*
X38314285Y73873753D02*
X38314285Y73635658D01*
X38314285Y73635658D02*
X38361904Y73540420D01*
X38361904Y73540420D02*
X38409523Y73492800D01*
X38409523Y73492800D02*
X38504761Y73445181D01*
X38504761Y73445181D02*
X38790475Y73445181D01*
X38790475Y73445181D02*
X38885713Y73492800D01*
X38885713Y73492800D02*
X38933332Y73540420D01*
D12*
%TO.C,J5*%
X66981000Y51015600D02*
G75*
G02*
X66219000Y51015600I-381000J0D01*
G01*
X66219000Y51015600D02*
G75*
G02*
X66981000Y51015600I381000J0D01*
G01*
%TO.C,J4*%
X67057150Y40542200D02*
G75*
G02*
X66295150Y40542200I-381000J0D01*
G01*
X66295150Y40542200D02*
G75*
G02*
X67057150Y40542200I381000J0D01*
G01*
%TO.C,J6*%
X66804850Y65409000D02*
G75*
G02*
X66042850Y65409000I-381000J0D01*
G01*
X66042850Y65409000D02*
G75*
G02*
X66804850Y65409000I381000J0D01*
G01*
%TO.C,J7*%
X66804850Y75909000D02*
G75*
G02*
X66042850Y75909000I-381000J0D01*
G01*
X66042850Y75909000D02*
G75*
G02*
X66804850Y75909000I381000J0D01*
G01*
D10*
%TO.C,C13*%
X22461252Y75035000D02*
X21938748Y75035000D01*
X22461252Y73565000D02*
X21938748Y73565000D01*
%TO.C,R3*%
X59500000Y33475436D02*
X59500000Y33929564D01*
X60970000Y33475436D02*
X60970000Y33929564D01*
%TO.C,C9*%
X31465000Y89988748D02*
X31465000Y90511252D01*
X32935000Y89988748D02*
X32935000Y90511252D01*
%TO.C,R2*%
X48377500Y83960436D02*
X48377500Y84414564D01*
X49847500Y83960436D02*
X49847500Y84414564D01*
%TO.C,D2*%
X26340000Y83550000D02*
X26340000Y82900000D01*
X26340000Y82250000D02*
X26340000Y82900000D01*
X29460000Y83550000D02*
X29460000Y82900000D01*
X29460000Y82250000D02*
X29460000Y82900000D01*
X26390000Y84062500D02*
X26060000Y83822500D01*
X26060000Y84302500D01*
X26390000Y84062500D01*
G36*
X26390000Y84062500D02*
G01*
X26060000Y83822500D01*
X26060000Y84302500D01*
X26390000Y84062500D01*
G37*
%TO.C,C11*%
X36586252Y82635000D02*
X36063748Y82635000D01*
X36586252Y81165000D02*
X36063748Y81165000D01*
%TO.C,C1*%
X6661252Y21255000D02*
X5238748Y21255000D01*
X6661252Y19435000D02*
X5238748Y19435000D01*
%TO.C,J1*%
X24488000Y5185000D02*
X25538000Y5185000D01*
X24488000Y2685000D02*
X24488000Y5185000D01*
X29538000Y715000D02*
X25658000Y715000D01*
X29658000Y5185000D02*
X29658000Y6175000D01*
X30708000Y5185000D02*
X29658000Y5185000D01*
X30708000Y2685000D02*
X30708000Y5185000D01*
%TO.C,R1*%
X42746250Y76127064D02*
X42746250Y75672936D01*
X44216250Y76127064D02*
X44216250Y75672936D01*
D13*
%TO.C,U4*%
X24748900Y78151100D02*
X24748900Y77316441D01*
X24748900Y74870959D02*
X24748900Y74036300D01*
X24748900Y74036300D02*
X25583371Y74036300D01*
X25583371Y78151100D02*
X24748900Y78151100D01*
X28029229Y74036300D02*
X28863700Y74036300D01*
X28863700Y78151100D02*
X28029229Y78151100D01*
X28863700Y77316441D02*
X28863700Y78151100D01*
X28863700Y74036300D02*
X28863700Y74870959D01*
D14*
G36*
X24402299Y75653200D02*
G01*
X24148299Y75653200D01*
X24148299Y76034201D01*
X24402299Y76034201D01*
X24402299Y75653200D01*
G37*
D10*
%TO.C,L2*%
X20365000Y89000378D02*
X20365000Y89799622D01*
X21485000Y89000378D02*
X21485000Y89799622D01*
%TO.C,R7*%
X22390000Y84272936D02*
X22390000Y85727064D01*
X24210000Y84272936D02*
X24210000Y85727064D01*
%TO.C,R5*%
X38639564Y80235000D02*
X38185436Y80235000D01*
X38639564Y78765000D02*
X38185436Y78765000D01*
%TO.C,Rset1*%
X42239564Y80235000D02*
X41785436Y80235000D01*
X42239564Y78765000D02*
X41785436Y78765000D01*
%TO.C,Q2*%
X45362500Y85747500D02*
X46012500Y85747500D01*
X45362500Y82627500D02*
X46012500Y82627500D01*
X46662500Y85747500D02*
X46012500Y85747500D01*
X46662500Y82627500D02*
X46012500Y82627500D01*
X47175000Y85697500D02*
X46935000Y86027500D01*
X47415000Y86027500D01*
X47175000Y85697500D01*
G36*
X47175000Y85697500D02*
G01*
X46935000Y86027500D01*
X47415000Y86027500D01*
X47175000Y85697500D01*
G37*
%TO.C,C2*%
X9261252Y14455000D02*
X7838748Y14455000D01*
X9261252Y12635000D02*
X7838748Y12635000D01*
%TO.C,R9*%
X21985436Y72835000D02*
X22439564Y72835000D01*
X21985436Y71365000D02*
X22439564Y71365000D01*
%TO.C,L1*%
X10647936Y18405000D02*
X11852064Y18405000D01*
X10647936Y15685000D02*
X11852064Y15685000D01*
%TO.C,R12*%
X31065000Y53272936D02*
X31065000Y53727064D01*
X32535000Y53272936D02*
X32535000Y53727064D01*
%TO.C,U1*%
X6150000Y18605000D02*
X5350000Y18605000D01*
X6150000Y18605000D02*
X6950000Y18605000D01*
X6150000Y15485000D02*
X4350000Y15485000D01*
X6150000Y15485000D02*
X6950000Y15485000D01*
%TO.C,C7*%
X25365000Y86961252D02*
X25365000Y86438748D01*
X26835000Y86961252D02*
X26835000Y86438748D01*
%TO.C,C8*%
X20265000Y85811252D02*
X20265000Y85288748D01*
X21735000Y85811252D02*
X21735000Y85288748D01*
%TO.C,R10*%
X24365000Y72027064D02*
X24365000Y71572936D01*
X25835000Y72027064D02*
X25835000Y71572936D01*
%TO.C,R4*%
X59207936Y31225000D02*
X59662064Y31225000D01*
X59207936Y29755000D02*
X59662064Y29755000D01*
%TO.C,C12*%
X20561252Y83335000D02*
X20038748Y83335000D01*
X20561252Y81865000D02*
X20038748Y81865000D01*
%TO.C,C10*%
X20511252Y80835000D02*
X19988748Y80835000D01*
X20511252Y79365000D02*
X19988748Y79365000D01*
%TO.C,Q1*%
X25350000Y93865000D02*
X27300000Y93865000D01*
X25350000Y88745000D02*
X27300000Y88745000D01*
X29250000Y93865000D02*
X27300000Y93865000D01*
X29250000Y88745000D02*
X27300000Y88745000D01*
X24840000Y88510000D02*
X24360000Y88510000D01*
X24600000Y88840000D01*
X24840000Y88510000D01*
G36*
X24840000Y88510000D02*
G01*
X24360000Y88510000D01*
X24600000Y88840000D01*
X24840000Y88510000D01*
G37*
%TO.C,R11*%
X35365000Y53827064D02*
X35365000Y53372936D01*
X36835000Y53827064D02*
X36835000Y53372936D01*
%TO.C,C14*%
X27565000Y71538748D02*
X27565000Y72061252D01*
X29035000Y71538748D02*
X29035000Y72061252D01*
%TO.C,C5*%
X29965000Y82288748D02*
X29965000Y82811252D01*
X31435000Y82288748D02*
X31435000Y82811252D01*
%TO.C,C3*%
X10538748Y21255000D02*
X11961252Y21255000D01*
X10538748Y19435000D02*
X11961252Y19435000D01*
%TO.C,R6*%
X45565000Y80472936D02*
X45565000Y80927064D01*
X47035000Y80472936D02*
X47035000Y80927064D01*
%TO.C,C4*%
X10538748Y24255000D02*
X11961252Y24255000D01*
X10538748Y22435000D02*
X11961252Y22435000D01*
%TO.C,R8*%
X36085436Y85135000D02*
X36539564Y85135000D01*
X36085436Y83665000D02*
X36539564Y83665000D01*
%TO.C,C6*%
X45046250Y75638748D02*
X45046250Y76161252D01*
X46516250Y75638748D02*
X46516250Y76161252D01*
D13*
%TO.C,D3*%
X34680400Y76300000D02*
X35950400Y76300000D01*
X34934400Y76935000D02*
X34934400Y75665000D01*
X35696400Y76935000D02*
X34934400Y76300000D01*
X35696400Y76935000D02*
X35696400Y75665000D01*
X35696400Y76808000D02*
X34934400Y76300000D01*
X35696400Y76681000D02*
X34934400Y76300000D01*
X35696400Y76554000D02*
X34934400Y76300000D01*
X35696400Y76427000D02*
X34934400Y76300000D01*
X35696400Y76173000D02*
X34934400Y76300000D01*
X35696400Y76046000D02*
X34934400Y76300000D01*
X35696400Y75919000D02*
X34934400Y76300000D01*
X35696400Y75792000D02*
X34934400Y76300000D01*
X35696400Y75665000D02*
X34934400Y76300000D01*
X36331400Y77824000D02*
X36331400Y77458240D01*
X36331400Y75141760D02*
X36331400Y74776000D01*
X36331400Y74776000D02*
X41868600Y74776000D01*
X41868600Y77824000D02*
X36331400Y77824000D01*
X41868600Y77458240D02*
X41868600Y77824000D01*
X41868600Y74776000D02*
X41868600Y75141760D01*
%TD*%
M02*
