M48
; DRILL file {KiCad 8.0.5} date 2024-09-29T23:23:02-0400
; FORMAT={-:-/ absolute / inch / decimal}
; #@! TF.CreationDate,2024-09-29T23:23:02-04:00
; #@! TF.GenerationSoftware,Kicad,Pcbnew,8.0.5
; #@! TF.FileFunction,Plated,1,2,PTH
FMAT,2
INCH
; #@! TA.AperFunction,Plated,PTH,ComponentDrill
T1C0.0100
; #@! TA.AperFunction,Plated,PTH,ViaDrill
T2C0.0118
; #@! TA.AperFunction,Plated,PTH,ViaDrill
T3C0.0157
; #@! TA.AperFunction,Plated,PTH,ComponentDrill
T4C0.0295
; #@! TA.AperFunction,Plated,PTH,ComponentDrill
T5C0.0319
; #@! TA.AperFunction,Plated,PTH,ComponentDrill
T6C0.0394
; #@! TA.AperFunction,Plated,PTH,ComponentDrill
T7C0.0433
; #@! TA.AperFunction,Plated,PTH,ComponentDrill
T8C0.0570
%
G90
G05
T1
X1.0399Y3.0113
X1.0399Y2.9803
X1.0709Y3.0113
X1.0709Y2.9803
T2
X0.2421Y0.6356
X0.2854Y0.7419
X0.2933Y0.86
X0.3209Y0.7419
X0.3366Y0.8285
X0.3366Y0.7774
X0.3839Y0.86
T3
X0.1398Y0.6533
X0.1476Y0.5254
X0.2894Y0.9289
X0.561Y0.862
X0.561Y0.7478
X0.561Y0.551
X0.5787Y1.3898
X0.752Y3.0157
X0.7854Y2.7894
X0.8386Y2.7628
X0.937Y2.248
X0.938Y3.0158
X0.9882Y2.7908
X1.0074Y0.2835
X1.0433Y3.6693
X1.0544Y0.2833
X1.1058Y0.1279
X1.1553Y0.8841
X1.1575Y3.2362
X1.1809Y0.8113
X1.2397Y3.0714
X1.311Y3.2126
X1.315Y2.126
X1.3268Y3.0512
X1.3327Y1.75
X1.3346Y2.7717
X1.3465Y3.4606
X1.3819Y3.1417
X1.3996Y1.815
X1.437Y3.5512
X1.4967Y3.0801
X1.5827Y1.8543
X1.6024Y2.1496
X1.6949Y2.874
X1.8024Y2.9508
X1.8189Y2.6772
X1.9213Y2.6693
X1.9764Y2.9213
X1.9764Y2.8228
X1.9764Y0.0827
X2.1535Y1.122
X2.2835Y0.9921
T4
X1.5647Y3.2535
X1.6147Y3.2535
X1.6647Y3.2535
T5
X1.1039Y2.6449
X1.1291Y2.2449
X1.2287Y2.2449
X1.2539Y2.6449
X1.4209Y2.6449
X1.4461Y2.2449
X1.5457Y2.2449
X1.5709Y2.6449
T6
X0.1417Y2.4193
X0.1417Y2.3193
X0.1417Y2.2193
X0.1417Y2.1193
X0.1417Y2.0193
X0.1417Y1.9193
X0.1417Y1.8193
X0.1417Y1.7193
X0.1417Y1.6193
X0.1417Y1.5193
X0.7869Y1.5669
X0.7869Y1.4669
X0.7869Y1.3669
X0.7869Y1.2669
X0.7869Y1.1669
X0.7869Y1.0669
X0.7869Y0.9669
X0.7869Y0.8669
X0.7869Y0.7669
X0.7869Y0.6669
X0.7869Y0.5669
X0.7869Y0.4669
X0.7869Y0.3669
X0.7869Y0.2669
X0.7869Y0.1669
X1.3869Y1.5669
X1.3869Y1.4669
X1.3869Y1.3669
X1.3869Y1.2669
X1.3869Y1.1669
X1.3869Y1.0669
X1.3869Y0.9669
X1.3869Y0.8669
X1.3869Y0.7669
X1.3869Y0.6669
X1.3869Y0.5669
X1.3869Y0.4669
X1.3869Y0.3669
X1.3869Y0.2669
X1.3869Y0.1669
T7
X2.5748Y1.3413
X2.5748Y1.2413
T8
X2.6151Y3.2745
X2.6151Y3.0745
X2.6151Y2.8612
X2.6151Y2.6612
X2.622Y2.2945
X2.622Y2.0945
X2.625Y1.8821
X2.625Y1.6821
M30
