%TF.GenerationSoftware,KiCad,Pcbnew,8.0.5*%
%TF.CreationDate,2024-09-29T23:23:00-04:00*%
%TF.ProjectId,BREAD_Slice,42524541-445f-4536-9c69-63652e6b6963,rev?*%
%TF.SameCoordinates,PX74eba40PY8552dc0*%
%TF.FileFunction,Soldermask,Top*%
%TF.FilePolarity,Negative*%
%FSLAX46Y46*%
G04 Gerber Fmt 4.6, Leading zero omitted, Abs format (unit mm)*
G04 Created by KiCad (PCBNEW 8.0.5) date 2024-09-29 23:23:00*
%MOMM*%
%LPD*%
G01*
G04 APERTURE LIST*
G04 Aperture macros list*
%AMRoundRect*
0 Rectangle with rounded corners*
0 $1 Rounding radius*
0 $2 $3 $4 $5 $6 $7 $8 $9 X,Y pos of 4 corners*
0 Add a 4 corners polygon primitive as box body*
4,1,4,$2,$3,$4,$5,$6,$7,$8,$9,$2,$3,0*
0 Add four circle primitives for the rounded corners*
1,1,$1+$1,$2,$3*
1,1,$1+$1,$4,$5*
1,1,$1+$1,$6,$7*
1,1,$1+$1,$8,$9*
0 Add four rect primitives between the rounded corners*
20,1,$1+$1,$2,$3,$4,$5,0*
20,1,$1+$1,$4,$5,$6,$7,0*
20,1,$1+$1,$6,$7,$8,$9,0*
20,1,$1+$1,$8,$9,$2,$3,0*%
G04 Aperture macros list end*
%ADD10C,5.100000*%
%ADD11RoundRect,0.050000X-0.800000X-0.800000X0.800000X-0.800000X0.800000X0.800000X-0.800000X0.800000X0*%
%ADD12O,1.700000X1.700000*%
%ADD13RoundRect,0.050000X-0.850000X-0.850000X0.850000X-0.850000X0.850000X0.850000X-0.850000X0.850000X0*%
%ADD14O,1.800000X1.800000*%
%ADD15RoundRect,0.265530X-0.569470X0.929470X-0.569470X-0.929470X0.569470X-0.929470X0.569470X0.929470X0*%
%ADD16O,1.670000X2.390000*%
%ADD17C,1.200000*%
%ADD18RoundRect,0.050000X-1.100000X1.100000X-1.100000X-1.100000X1.100000X-1.100000X1.100000X1.100000X0*%
%ADD19C,2.300000*%
%ADD20RoundRect,1.008333X-5.041667X-5.041667X5.041667X-5.041667X5.041667X5.041667X-5.041667X5.041667X0*%
%ADD21C,2.055800*%
%ADD22RoundRect,0.101600X-0.825500X-0.500000X0.825500X-0.500000X0.825500X0.500000X-0.825500X0.500000X0*%
%ADD23RoundRect,0.050000X-0.525000X-0.750000X0.525000X-0.750000X0.525000X0.750000X-0.525000X0.750000X0*%
%ADD24O,1.150000X1.600000*%
%ADD25C,0.608000*%
G04 APERTURE END LIST*
D10*
%TO.C,H1*%
X5000000Y95000000D03*
%TD*%
%TO.C,H3*%
X65000000Y95000000D03*
%TD*%
%TO.C,H2*%
X5000000Y5000000D03*
%TD*%
%TO.C,H4*%
X65000000Y5000000D03*
%TD*%
D11*
%TO.C,A1*%
X19988000Y39800000D03*
D12*
X19988000Y37260000D03*
X19988000Y34720000D03*
X19988000Y32180000D03*
X19988000Y29640000D03*
X19988000Y27100000D03*
X19988000Y24560000D03*
X19988000Y22020000D03*
X19988000Y19480000D03*
X19988000Y16940000D03*
X19988000Y14400000D03*
X19988000Y11860000D03*
X19988000Y9320000D03*
X19988000Y6780000D03*
X19988000Y4240000D03*
X35228000Y4240000D03*
X35228000Y6780000D03*
X35228000Y9320000D03*
X35228000Y11860000D03*
X35228000Y14400000D03*
X35228000Y16940000D03*
X35228000Y19480000D03*
X35228000Y22020000D03*
X35228000Y24560000D03*
X35228000Y27100000D03*
X35228000Y29640000D03*
X35228000Y32180000D03*
X35228000Y34720000D03*
X35228000Y37260000D03*
X35228000Y39800000D03*
%TD*%
D13*
%TO.C,J2*%
X3600000Y61450000D03*
D14*
X3600000Y58910000D03*
X3600000Y56370000D03*
X3600000Y53830000D03*
X3600000Y51290000D03*
X3600000Y48750000D03*
X3600000Y46210000D03*
X3600000Y43670000D03*
X3600000Y41130000D03*
X3600000Y38590000D03*
%TD*%
D15*
%TO.C,U5*%
X28040000Y67180000D03*
D16*
X31850000Y67180000D03*
X31210000Y57020000D03*
X28680000Y57020000D03*
%TD*%
D17*
%TO.C,J3*%
X62860000Y34070000D03*
X62860000Y31530000D03*
D18*
X65400000Y34070000D03*
D19*
X65400000Y31530000D03*
%TD*%
D20*
%TO.C,HS1*%
X8750000Y18445000D03*
%TD*%
D21*
%TO.C,J5*%
X66600000Y53200000D03*
X66600000Y58280000D03*
%TD*%
D22*
%TO.C,D1*%
X48123000Y5267231D03*
X48123000Y2067231D03*
X53277000Y2067231D03*
X53277000Y5267231D03*
%TD*%
D15*
%TO.C,U3*%
X36090000Y67180000D03*
D16*
X39900000Y67180000D03*
X39260000Y57020000D03*
X36730000Y57020000D03*
%TD*%
D21*
%TO.C,J4*%
X66676150Y42726600D03*
X66676150Y47806600D03*
%TD*%
%TO.C,J6*%
X66423850Y67593400D03*
X66423850Y72673400D03*
%TD*%
%TO.C,J7*%
X66423850Y78093400D03*
X66423850Y83173400D03*
%TD*%
D23*
%TO.C,U2*%
X39742500Y82640000D03*
D24*
X41012500Y82640000D03*
X42282500Y82640000D03*
%TD*%
D25*
%TO.C,U4*%
X27200000Y75700000D03*
X27200000Y76487400D03*
X26412600Y75700000D03*
X26412600Y76487400D03*
%TD*%
M02*
